<svg width="190" height="34" viewBox="0 0 190 34" fill="none" xmlns="http://www.w3.org/2000/svg">
<path d="M101.721 27.3883V14.3376C101.732 14.0289 101.682 13.7212 101.572 13.4325C101.462 13.1439 101.296 12.8803 101.083 12.6573C100.657 12.2204 99.9977 12.002 99.1041 12.002C98.167 12.002 97.4811 12.2311 97.0466 12.6892C96.8347 12.9072 96.6679 13.165 96.5557 13.4479C96.4436 13.7308 96.3884 14.0332 96.3932 14.3376V27.3967H89.0529V14.3376C89.0639 14.0291 89.0132 13.7215 88.9039 13.4329C88.7946 13.1443 88.6287 12.8806 88.4162 12.6573C87.9917 12.2148 87.3327 11.9936 86.4391 11.9936C85.5455 11.9936 84.8809 12.2014 84.4453 12.617C84.0074 13.0337 83.7679 13.6257 83.7265 14.393V27.3883H76.3862V7.35601H81.2351L82.1616 9.59414C82.858 8.60868 83.806 7.82924 84.9061 7.33753C85.9491 6.8664 87.0796 6.62134 88.2235 6.61837C89.5179 6.59476 90.8 6.87377 91.9682 7.4333C93.058 7.97262 93.9631 8.82481 94.5686 9.88147C94.9357 9.32368 95.3816 8.82222 95.8922 8.39274C96.3895 7.97954 96.9367 7.63067 97.5208 7.35433C98.0953 7.08006 98.7006 6.87585 99.3236 6.74607C99.9298 6.61912 100.547 6.55437 101.167 6.55284C102.194 6.54819 103.216 6.69945 104.198 7.00147C105.125 7.28025 105.983 7.7546 106.712 8.39274C107.454 9.06104 108.038 9.8864 108.421 10.809C108.846 11.7903 109.058 12.9665 109.058 14.3376V27.3967L101.721 27.3883Z" fill="white"/>
<path d="M123.258 27.4911C121.089 27.4911 119.196 27.2295 117.58 26.7064C115.963 26.1833 114.618 25.463 113.543 24.5455C112.491 23.6606 111.665 22.536 111.134 21.2656C110.071 18.5841 110.071 15.5962 111.134 12.9147C111.668 11.6417 112.493 10.5129 113.543 9.61964C114.617 8.69101 115.962 7.97073 117.58 7.4588C119.197 6.94688 121.09 6.69092 123.258 6.69092C125.427 6.69092 127.32 6.94688 128.938 7.4588C130.555 7.97073 131.901 8.69101 132.974 9.61964C134.024 10.5133 134.849 11.642 135.383 12.9147C136.447 15.5962 136.447 18.5841 135.383 21.2656C134.852 22.5357 134.026 23.6602 132.974 24.5455C131.9 25.4652 130.554 26.1855 128.938 26.7064C127.322 27.2273 125.428 27.4888 123.258 27.4911ZM123.258 22.0503C125.003 22.0503 126.37 21.6583 127.36 20.8741C128.349 20.09 128.843 18.8315 128.842 17.0986C128.842 15.3936 128.348 14.1407 127.36 13.3398C126.371 12.5388 125.004 12.1384 123.258 12.1384C121.513 12.1384 120.147 12.5388 119.158 13.3398C118.17 14.1407 117.675 15.3936 117.675 17.0986C117.675 18.8281 118.17 20.0866 119.158 20.8741C120.147 21.6616 121.513 22.0537 123.258 22.0503Z" fill="white"/>
<path d="M137.457 27.3885V0H144.796V9.34739C145.673 8.40464 146.777 7.70442 148.003 7.31425C149.328 6.88971 150.712 6.67929 152.103 6.69087C153.617 6.66727 155.124 6.91069 156.554 7.41003C157.802 7.84304 158.938 8.54852 159.88 9.47549C160.822 10.4025 161.547 11.5278 162.003 12.7701C162.509 14.1529 162.758 15.6172 162.737 17.0901C162.757 18.5726 162.472 20.0433 161.899 21.4101C161.38 22.6455 160.612 23.7597 159.643 24.6825C158.673 25.6053 157.524 26.3167 156.266 26.7719C154.933 27.2605 153.522 27.5047 152.103 27.4927C150.535 27.5088 148.978 27.2372 147.509 26.6912C146.139 26.1847 144.958 25.2685 144.126 24.0666L143.36 27.3885H137.457ZM150.191 12.1299C149.613 12.1327 149.036 12.189 148.469 12.298C147.873 12.4087 147.294 12.5968 146.746 12.8575C146.242 13.0946 145.787 13.4259 145.406 13.8337C145.05 14.2146 144.836 14.7064 144.799 15.2267V18.7788C144.786 19.333 144.98 19.8722 145.342 20.291C145.714 20.7166 146.171 21.06 146.682 21.2992C147.234 21.5621 147.819 21.7502 148.42 21.8587C149.004 21.9692 149.597 22.0254 150.191 22.0268C151.787 22.0268 153.053 21.6 153.989 20.7464C154.925 19.8928 155.393 18.6662 155.393 17.0666C155.393 15.467 154.925 14.2404 153.989 13.3868C153.053 12.5332 151.786 12.1142 150.188 12.1299H150.191Z" fill="white"/>
<path d="M182.345 6.58984H189.92L175.563 33.9784H168.488L172.812 25.409L161.452 6.58984H169.159L176.15 18.7903L182.345 6.58984Z" fill="white"/>
<path d="M0 27.4686V0.0800781H7.33862V27.4686H0Z" fill="white"/>
<path d="M20.8985 6.67359C24.8761 6.67359 27.9076 7.5535 29.993 9.31331C32.0784 11.0731 33.1189 13.6389 33.1144 17.0107V19.1866H15.9541C15.9465 19.6295 16.0637 20.0655 16.2922 20.4445C16.5208 20.8234 16.8513 21.13 17.2459 21.329C18.0848 21.7994 19.3023 22.0341 20.8985 22.033C21.6097 22.0402 22.3201 21.984 23.0213 21.865C23.5125 21.7819 23.9973 21.6645 24.4723 21.5138C24.7733 21.4254 25.0588 21.2905 25.3184 21.1139C25.441 21.0367 25.5447 20.9327 25.6217 20.8098H32.9603C32.4286 22.9 31.11 24.5321 29.0045 25.7061C26.8989 26.88 24.1969 27.4676 20.8985 27.4687C19.1628 27.4929 17.4328 27.2666 15.7614 26.7966C14.3572 26.401 13.0467 25.7262 11.9078 24.8122C10.8464 23.9413 10.0091 22.8274 9.46665 21.5642C8.90815 20.2738 8.62891 18.7755 8.62891 17.0695C8.62891 15.3892 8.90815 13.8954 9.46665 12.5882C10.0058 11.3221 10.8408 10.2046 11.9011 9.33011C13.0403 8.41676 14.3508 7.74197 15.7547 7.34571C17.4284 6.87599 19.1607 6.64964 20.8985 6.67359ZM20.8985 12.1143C19.1113 12.1143 17.8457 12.3518 17.1018 12.8268C16.3579 13.3017 15.9753 13.8652 15.9541 14.5171V14.8347H25.7808V14.4869C25.7808 13.854 25.4033 13.3006 24.6482 12.8268C23.8931 12.3529 22.6432 12.1155 20.8985 12.1143Z" fill="white"/>
<path d="M46.4947 7.43969C48.5212 7.43969 50.1641 5.79219 50.1641 3.75989C50.1641 1.72758 48.5212 0.0800781 46.4947 0.0800781C44.4682 0.0800781 42.8254 1.72758 42.8254 3.75989C42.8254 5.79219 44.4682 7.43969 46.4947 7.43969Z" fill="#FF8F29"/>
<path d="M52.8615 6.67334L46.4913 20.8482L40.1211 6.67334H31.8442L42.5539 27.4735H46.4628H46.5198H50.4287L61.1384 6.67334H52.8615Z" fill="white"/>
</svg>
