<svg width="184" height="56" viewBox="0 0 184 56" fill="none" xmlns="http://www.w3.org/2000/svg">
<rect width="184" height="56" rx="7" fill="white"/>
<path d="M92.865 30.4536C89.6638 30.4536 87.0486 32.956 87.0486 36.4088C87.0486 39.8335 89.6638 42.3623 92.865 42.3623C96.0731 42.3623 98.6883 39.8335 98.6883 36.4088C98.6883 32.956 96.0731 30.4536 92.865 30.4536ZM92.865 40.0173C91.1085 40.0173 89.5973 38.528 89.5973 36.4088C89.5973 34.2615 91.1085 32.7986 92.865 32.7986C94.6215 32.7986 96.1395 34.2615 96.1395 36.4088C96.1395 38.528 94.6215 40.0173 92.865 40.0173V40.0173ZM80.1741 30.4536C76.9661 30.4536 74.3577 32.956 74.3577 36.4088C74.3577 39.8335 76.9661 42.3623 80.1741 42.3623C83.3805 42.3623 85.9906 39.8335 85.9906 36.4088C85.9906 32.956 83.3805 30.4536 80.1741 30.4536ZM80.1741 40.0173C78.4159 40.0173 76.8996 38.528 76.8996 36.4088C76.8996 34.2615 78.4159 32.7986 80.1741 32.7986C81.9306 32.7986 83.4418 34.2615 83.4418 36.4088C83.4418 38.528 81.9306 40.0173 80.1741 40.0173ZM65.0725 32.2788V34.8093H70.9554C70.7833 36.2233 70.3233 37.2628 69.618 37.9873C68.7593 38.8623 67.4219 39.8335 65.0725 39.8335C61.4521 39.8335 58.6172 36.8323 58.6172 33.1135C58.6172 29.3948 61.4521 26.3936 65.0725 26.3936C67.0301 26.3936 68.4544 27.1793 69.5055 28.1978L71.2416 26.4146C69.7713 24.9726 67.8155 23.8648 65.0725 23.8648C60.1079 23.8648 55.9355 28.0141 55.9355 33.1135C55.9355 38.213 60.1079 42.3623 65.0725 42.3623C67.7558 42.3623 69.7713 41.4593 71.3558 39.7653C72.9794 38.0975 73.4854 35.7525 73.4854 33.859C73.4854 33.271 73.4377 32.7303 73.3525 32.2788H65.0725ZM126.825 34.2405C126.346 32.9088 124.869 30.4536 121.86 30.4536C118.879 30.4536 116.397 32.8668 116.397 36.4088C116.397 39.7443 118.853 42.3623 122.147 42.3623C124.809 42.3623 126.346 40.6945 126.978 39.7233L125.002 38.3705C124.343 39.361 123.445 40.0173 122.147 40.0173C120.857 40.0173 119.932 39.41 119.339 38.213L127.092 34.9178L126.825 34.2405V34.2405ZM118.92 36.2233C118.853 33.9273 120.656 32.7513 121.947 32.7513C122.959 32.7513 123.818 33.271 124.104 34.0148L118.92 36.2233V36.2233ZM112.618 42H115.166V24.5001H112.618V42ZM108.444 31.7801H108.358C107.786 31.0836 106.694 30.4536 105.311 30.4536C102.407 30.4536 99.7531 33.0715 99.7531 36.428C99.7531 39.7653 102.407 42.3623 105.311 42.3623C106.694 42.3623 107.786 41.727 108.358 41.0095H108.444V41.8635C108.444 44.1403 107.26 45.3635 105.35 45.3635C103.793 45.3635 102.827 44.2085 102.428 43.2373L100.211 44.1875C100.85 45.766 102.542 47.7085 105.35 47.7085C108.338 47.7085 110.86 45.9025 110.86 41.5083V30.8158H108.444V31.7801V31.7801ZM105.529 40.0173C103.772 40.0173 102.302 38.507 102.302 36.428C102.302 34.3298 103.772 32.7986 105.529 32.7986C107.26 32.7986 108.624 34.3298 108.624 36.428C108.624 38.507 107.26 40.0173 105.529 40.0173V40.0173ZM138.758 24.5001H132.662V42H135.204V35.3693H138.758C141.581 35.3693 144.349 33.271 144.349 29.9338C144.349 26.5983 141.574 24.5001 138.758 24.5001V24.5001ZM138.824 32.935H135.204V26.9343H138.824C140.722 26.9343 141.806 28.5531 141.806 29.9338C141.806 31.2883 140.722 32.935 138.824 32.935ZM154.537 30.4203C152.701 30.4203 150.791 31.2533 150.005 33.0995L152.261 34.0708C152.747 33.0995 153.64 32.7845 154.583 32.7845C155.902 32.7845 157.239 33.5983 157.26 35.035V35.2188C156.8 34.9458 155.815 34.5415 154.604 34.5415C152.174 34.5415 149.699 35.9153 149.699 38.479C149.699 40.824 151.689 42.3343 153.926 42.3343C155.636 42.3343 156.58 41.5415 157.173 40.6193H157.26V41.972H159.715V35.259C159.715 32.1563 157.459 30.4203 154.537 30.4203ZM154.231 40.0103C153.399 40.0103 152.241 39.5868 152.241 38.528C152.241 37.1735 153.686 36.6538 154.936 36.6538C156.055 36.6538 156.58 36.9075 157.26 37.2418C157.061 38.8623 155.703 40.0103 154.231 40.0103V40.0103ZM168.659 30.8036L165.737 38.3898H165.651L162.63 30.8036H159.889L164.427 41.405L161.838 47.3042H164.494L171.487 30.8036H168.659V30.8036ZM145.746 42H148.295V24.5001H145.746V42Z" fill="#2D2D2D"/>
<path d="M14.2173 43.4839C14.2173 43.9368 14.2887 44.2965 14.4008 44.5731L30.542 27.9999L14.4028 11.4289C14.2896 11.706 14.2173 12.0673 14.2173 12.523V43.4839Z" stroke="#2D2D2D"/>
<path d="M31.8819 28.0004L36.9456 33.208L43.3179 29.4904C43.3181 29.4903 43.3182 29.4903 43.3183 29.4902C44.1504 29.0034 44.4378 28.4434 44.4378 28.0012C44.4378 27.5594 44.151 27.0013 43.3194 26.518L43.3181 26.5173L36.9494 22.7951L31.8819 28.0004Z" stroke="#2D2D2D"/>
<mask id="path-5-inside-1_658_1224" fill="white">
<path d="M36.9688 33.9132L31.212 28L14.2227 45.4527C14.8547 46.1352 15.8855 46.2175 17.0576 45.535L36.9688 33.9132"/>
</mask>
<path d="M31.212 28L30.3091 27.1414L31.212 26.2139L32.1149 27.1413L31.212 28ZM14.2227 45.4527L13.2984 46.2889L12.5045 45.4316L13.3197 44.5941L14.2227 45.4527ZM17.0576 45.535L17.6948 46.6013L17.6936 46.602L17.0576 45.535ZM36.0659 34.7719L30.3091 28.8587L32.1149 27.1413L37.8717 33.0546L36.0659 34.7719ZM32.1149 28.8586L15.1256 46.3113L13.3197 44.5941L30.3091 27.1414L32.1149 28.8586ZM15.1469 44.6165C15.2337 44.7103 15.334 44.7617 15.4915 44.7684C15.6726 44.7762 15.9851 44.7221 16.4216 44.4679L17.6936 46.602C16.2194 47.4603 14.4731 47.5573 13.2984 46.2889L15.1469 44.6165ZM16.4205 44.4686L36.3317 32.8469L37.606 34.9796L17.6948 46.6013L16.4205 44.4686Z" fill="#2D2D2D" mask="url(#path-5-inside-1_658_1224)"/>
<path d="M15.1969 10.6618L31.2119 27.107L35.968 22.2218L16.7421 11.0001C16.7416 10.9998 16.7412 10.9995 16.7407 10.9993C16.0865 10.6226 15.575 10.5575 15.1969 10.6618Z" stroke="#2D2D2D"/>
<path d="M64.32 14.489C64.32 15.2603 64.1987 15.932 63.956 16.504C63.7133 17.076 63.371 17.5527 62.929 17.934C62.4957 18.3153 61.9757 18.6013 61.369 18.792C60.7623 18.9827 60.095 19.078 59.367 19.078C59.003 19.078 58.6217 19.0563 58.223 19.013C57.8243 18.9783 57.4733 18.922 57.17 18.844V10.16C57.4733 10.0733 57.8243 10.0127 58.223 9.978C58.6217 9.93467 59.003 9.913 59.367 9.913C60.095 9.913 60.7623 10.0083 61.369 10.199C61.9757 10.3897 62.4957 10.6757 62.929 11.057C63.371 11.4383 63.7133 11.915 63.956 12.487C64.1987 13.059 64.32 13.7263 64.32 14.489ZM58.054 18.22C58.106 18.2287 58.236 18.246 58.444 18.272C58.6607 18.298 59.003 18.311 59.471 18.311C60.121 18.311 60.6887 18.2243 61.174 18.051C61.6593 17.869 62.0667 17.6133 62.396 17.284C62.7253 16.9547 62.9723 16.556 63.137 16.088C63.3017 15.6113 63.384 15.0783 63.384 14.489C63.384 13.8997 63.3017 13.371 63.137 12.903C62.9723 12.435 62.7253 12.0363 62.396 11.707C62.0667 11.3777 61.6593 11.1263 61.174 10.953C60.6887 10.771 60.121 10.68 59.471 10.68C59.003 10.68 58.6607 10.693 58.444 10.719C58.236 10.745 58.106 10.7623 58.054 10.771V18.22ZM67.7409 19H66.8959V12.279H67.7409V19ZM67.9359 10.251C67.9359 10.4503 67.8753 10.6107 67.7539 10.732C67.6326 10.8447 67.4853 10.901 67.3119 10.901C67.1386 10.901 66.9913 10.8447 66.8699 10.732C66.7486 10.6107 66.6879 10.4503 66.6879 10.251C66.6879 10.0517 66.7486 9.89567 66.8699 9.783C66.9913 9.66167 67.1386 9.601 67.3119 9.601C67.4853 9.601 67.6326 9.66167 67.7539 9.783C67.8753 9.89567 67.9359 10.0517 67.9359 10.251ZM72.0089 18.402C72.4942 18.402 72.8929 18.324 73.2049 18.168C73.5256 18.0033 73.6859 17.7303 73.6859 17.349C73.6859 17.167 73.6556 17.011 73.5949 16.881C73.5429 16.751 73.4519 16.634 73.3219 16.53C73.1919 16.426 73.0186 16.3263 72.8019 16.231C72.5939 16.1357 72.3339 16.023 72.0219 15.893C71.7706 15.789 71.5322 15.685 71.3069 15.581C71.0816 15.4683 70.8822 15.3427 70.7089 15.204C70.5356 15.0567 70.3969 14.8833 70.2929 14.684C70.1889 14.4847 70.1369 14.242 70.1369 13.956C70.1369 13.41 70.3406 12.968 70.7479 12.63C71.1639 12.292 71.7316 12.123 72.4509 12.123C72.9102 12.123 73.2872 12.162 73.5819 12.24C73.8852 12.318 74.0976 12.3873 74.2189 12.448L74.0239 13.202C73.9199 13.15 73.7422 13.0807 73.4909 12.994C73.2482 12.9073 72.8886 12.864 72.4119 12.864C72.2212 12.864 72.0392 12.8857 71.8659 12.929C71.7012 12.9637 71.5539 13.0243 71.4239 13.111C71.2939 13.189 71.1899 13.293 71.1119 13.423C71.0339 13.5443 70.9949 13.696 70.9949 13.878C70.9949 14.06 71.0296 14.216 71.0989 14.346C71.1682 14.476 71.2679 14.593 71.3979 14.697C71.5366 14.7923 71.7012 14.8833 71.8919 14.97C72.0912 15.0567 72.3166 15.152 72.5679 15.256C72.8279 15.36 73.0749 15.4683 73.3089 15.581C73.5516 15.685 73.7639 15.815 73.9459 15.971C74.1279 16.1183 74.2752 16.3003 74.3879 16.517C74.5006 16.725 74.5569 16.9893 74.5569 17.31C74.5569 17.9167 74.3272 18.376 73.8679 18.688C73.4172 19 72.7976 19.156 72.0089 19.156C71.4196 19.156 70.9689 19.104 70.6569 19C70.3449 18.9047 70.1369 18.831 70.0329 18.779L70.2539 18.012C70.2799 18.0293 70.3362 18.0597 70.4229 18.103C70.5096 18.1377 70.6266 18.181 70.7739 18.233C70.9212 18.2763 71.0946 18.3153 71.2939 18.35C71.5019 18.3847 71.7402 18.402 72.0089 18.402ZM77.6864 17.791C77.7644 17.8517 77.8598 17.9167 77.9724 17.986C78.0938 18.0553 78.2324 18.1203 78.3884 18.181C78.5444 18.2417 78.7134 18.2937 78.8954 18.337C79.0774 18.3717 79.2681 18.389 79.4674 18.389C79.8834 18.389 80.2301 18.3197 80.5074 18.181C80.7934 18.0337 81.0231 17.8387 81.1964 17.596C81.3698 17.3447 81.4954 17.0543 81.5734 16.725C81.6514 16.387 81.6904 16.0317 81.6904 15.659C81.6904 14.775 81.4694 14.099 81.0274 13.631C80.5854 13.1543 80.0004 12.916 79.2724 12.916C78.8564 12.916 78.5184 12.9377 78.2584 12.981C78.0071 13.0157 77.8164 13.0547 77.6864 13.098V17.791ZM77.6864 21.405H76.8414V12.513C77.0928 12.4263 77.4134 12.344 77.8034 12.266C78.1934 12.188 78.6874 12.149 79.2854 12.149C79.7794 12.149 80.2258 12.2313 80.6244 12.396C81.0318 12.552 81.3784 12.7817 81.6644 13.085C81.9591 13.3883 82.1844 13.7567 82.3404 14.19C82.5051 14.6233 82.5874 15.113 82.5874 15.659C82.5874 16.1703 82.5181 16.6427 82.3794 17.076C82.2494 17.5007 82.0544 17.869 81.7944 18.181C81.5344 18.4843 81.2138 18.7227 80.8324 18.896C80.4598 19.0693 80.0308 19.156 79.5454 19.156C79.1034 19.156 78.7178 19.0953 78.3884 18.974C78.0678 18.844 77.8338 18.7227 77.6864 18.61V21.405ZM90.8035 15.646C90.8035 16.1747 90.7255 16.6557 90.5695 17.089C90.4222 17.5223 90.2099 17.8907 89.9325 18.194C89.6639 18.4973 89.3432 18.7357 88.9705 18.909C88.5979 19.0737 88.1862 19.156 87.7355 19.156C87.2849 19.156 86.8732 19.0737 86.5005 18.909C86.1279 18.7357 85.8029 18.4973 85.5255 18.194C85.2569 17.8907 85.0445 17.5223 84.8885 17.089C84.7412 16.6557 84.6675 16.1747 84.6675 15.646C84.6675 15.1173 84.7412 14.6363 84.8885 14.203C85.0445 13.7697 85.2569 13.4013 85.5255 13.098C85.8029 12.786 86.1279 12.5477 86.5005 12.383C86.8732 12.2097 87.2849 12.123 87.7355 12.123C88.1862 12.123 88.5979 12.2097 88.9705 12.383C89.3432 12.5477 89.6639 12.786 89.9325 13.098C90.2099 13.4013 90.4222 13.7697 90.5695 14.203C90.7255 14.6363 90.8035 15.1173 90.8035 15.646ZM89.9065 15.646C89.9065 14.8053 89.7115 14.138 89.3215 13.644C88.9315 13.1413 88.4029 12.89 87.7355 12.89C87.0682 12.89 86.5395 13.1413 86.1495 13.644C85.7595 14.138 85.5645 14.8053 85.5645 15.646C85.5645 16.4867 85.7595 17.154 86.1495 17.648C86.5395 18.142 87.0682 18.389 87.7355 18.389C88.4029 18.389 88.9315 18.142 89.3215 17.648C89.7115 17.154 89.9065 16.4867 89.9065 15.646ZM93.2869 12.513C93.5383 12.4437 93.8763 12.3657 94.3009 12.279C94.7256 12.1923 95.2456 12.149 95.8609 12.149C96.3723 12.149 96.7969 12.2227 97.1349 12.37C97.4816 12.5173 97.7546 12.7297 97.9539 13.007C98.1619 13.2757 98.3093 13.6007 98.3959 13.982C98.4826 14.3633 98.5259 14.7837 98.5259 15.243V19H97.6809V15.516C97.6809 15.0393 97.6463 14.6363 97.5769 14.307C97.5163 13.9777 97.4079 13.709 97.2519 13.501C97.1046 13.293 96.9053 13.1457 96.6539 13.059C96.4113 12.9637 96.1036 12.916 95.7309 12.916C95.3323 12.916 94.9856 12.9377 94.6909 12.981C94.4049 13.0243 94.2186 13.0633 94.1319 13.098V19H93.2869V12.513ZM102.183 19H101.338V12.279H102.183V19ZM103.561 9.614L101.338 11.421L100.909 10.927L102.963 8.951L103.561 9.614ZM107.101 18.09C107.283 17.7173 107.47 17.2927 107.66 16.816C107.851 16.3307 108.033 15.8323 108.206 15.321C108.388 14.801 108.553 14.281 108.7 13.761C108.856 13.2323 108.986 12.7383 109.09 12.279H109.935C109.779 12.8943 109.606 13.501 109.415 14.099C109.225 14.697 109.021 15.282 108.804 15.854C108.596 16.426 108.375 16.9763 108.141 17.505C107.916 18.0337 107.695 18.532 107.478 19H106.672C106.447 18.532 106.222 18.0337 105.996 17.505C105.771 16.9763 105.55 16.426 105.333 15.854C105.125 15.282 104.926 14.697 104.735 14.099C104.545 13.501 104.371 12.8943 104.215 12.279H105.112C105.216 12.7383 105.342 13.2323 105.489 13.761C105.645 14.281 105.81 14.801 105.983 15.321C106.165 15.8323 106.352 16.3307 106.542 16.816C106.733 17.2927 106.919 17.7173 107.101 18.09ZM111.566 15.633C111.566 15.0437 111.649 14.5323 111.813 14.099C111.987 13.657 112.208 13.2887 112.476 12.994C112.754 12.6993 113.066 12.4827 113.412 12.344C113.768 12.1967 114.132 12.123 114.504 12.123C115.328 12.123 115.982 12.3917 116.467 12.929C116.961 13.4663 117.208 14.294 117.208 15.412C117.208 15.4813 117.204 15.5507 117.195 15.62C117.195 15.6893 117.191 15.7543 117.182 15.815H112.463C112.489 16.6383 112.693 17.271 113.074 17.713C113.456 18.155 114.062 18.376 114.894 18.376C115.354 18.376 115.718 18.3327 115.986 18.246C116.255 18.1593 116.45 18.0857 116.571 18.025L116.727 18.753C116.606 18.8223 116.376 18.9047 116.038 19C115.709 19.0953 115.319 19.143 114.868 19.143C114.279 19.143 113.776 19.0563 113.36 18.883C112.944 18.7097 112.602 18.467 112.333 18.155C112.065 17.843 111.87 17.4747 111.748 17.05C111.627 16.6167 111.566 16.1443 111.566 15.633ZM116.337 15.1C116.32 14.398 116.155 13.852 115.843 13.462C115.531 13.072 115.089 12.877 114.517 12.877C114.214 12.877 113.941 12.9377 113.698 13.059C113.464 13.1803 113.256 13.345 113.074 13.553C112.901 13.7523 112.762 13.9863 112.658 14.255C112.563 14.5237 112.507 14.8053 112.489 15.1H116.337ZM121.444 19.117C121.158 19.1083 120.907 19.0693 120.69 19C120.482 18.9393 120.305 18.844 120.157 18.714C120.019 18.5753 119.91 18.402 119.832 18.194C119.763 17.9773 119.728 17.7087 119.728 17.388V9.068L120.573 8.912V17.362C120.573 17.57 120.591 17.739 120.625 17.869C120.669 17.9903 120.729 18.09 120.807 18.168C120.885 18.2373 120.985 18.2893 121.106 18.324C121.236 18.3587 121.388 18.389 121.561 18.415L121.444 19.117ZM127.313 12.513C127.564 12.4437 127.902 12.3657 128.327 12.279C128.752 12.1923 129.272 12.149 129.887 12.149C130.398 12.149 130.823 12.2227 131.161 12.37C131.508 12.5173 131.781 12.7297 131.98 13.007C132.188 13.2757 132.335 13.6007 132.422 13.982C132.509 14.3633 132.552 14.7837 132.552 15.243V19H131.707V15.516C131.707 15.0393 131.672 14.6363 131.603 14.307C131.542 13.9777 131.434 13.709 131.278 13.501C131.131 13.293 130.931 13.1457 130.68 13.059C130.437 12.9637 130.13 12.916 129.757 12.916C129.358 12.916 129.012 12.9377 128.717 12.981C128.431 13.0243 128.245 13.0633 128.158 13.098V19H127.313V12.513ZM141.097 15.646C141.097 16.1747 141.019 16.6557 140.863 17.089C140.716 17.5223 140.504 17.8907 140.226 18.194C139.958 18.4973 139.637 18.7357 139.264 18.909C138.892 19.0737 138.48 19.156 138.029 19.156C137.579 19.156 137.167 19.0737 136.794 18.909C136.422 18.7357 136.097 18.4973 135.819 18.194C135.551 17.8907 135.338 17.5223 135.182 17.089C135.035 16.6557 134.961 16.1747 134.961 15.646C134.961 15.1173 135.035 14.6363 135.182 14.203C135.338 13.7697 135.551 13.4013 135.819 13.098C136.097 12.786 136.422 12.5477 136.794 12.383C137.167 12.2097 137.579 12.123 138.029 12.123C138.48 12.123 138.892 12.2097 139.264 12.383C139.637 12.5477 139.958 12.786 140.226 13.098C140.504 13.4013 140.716 13.7697 140.863 14.203C141.019 14.6363 141.097 15.1173 141.097 15.646ZM140.2 15.646C140.2 14.8053 140.005 14.138 139.615 13.644C139.225 13.1413 138.697 12.89 138.029 12.89C137.362 12.89 136.833 13.1413 136.443 13.644C136.053 14.138 135.858 14.8053 135.858 15.646C135.858 16.4867 136.053 17.154 136.443 17.648C136.833 18.142 137.362 18.389 138.029 18.389C138.697 18.389 139.225 18.142 139.615 17.648C140.005 17.154 140.2 16.4867 140.2 15.646Z" fill="#2D2D2D"/>
</svg>
