<svg width="183" height="101" viewBox="0 0 183 101" fill="none" xmlns="http://www.w3.org/2000/svg">
<path d="M40.8362 90.3697V69.3339C40.8541 68.8364 40.7722 68.3404 40.5955 67.8752C40.4187 67.41 40.1507 66.985 39.8073 66.6256C39.1213 65.9214 38.0582 65.5693 36.6178 65.5693C35.1073 65.5693 34.0018 65.9386 33.3015 66.677C32.9599 67.0284 32.691 67.444 32.5102 67.9C32.3295 68.356 32.2404 68.8433 32.2482 69.3339V90.3833H20.4168V69.3339C20.4345 68.8367 20.3529 68.3409 20.1766 67.8757C20.0004 67.4106 19.7331 66.9855 19.3905 66.6256C18.7064 65.9124 17.6441 65.5558 16.2038 65.5558C14.7634 65.5558 13.6922 65.8907 12.99 66.5606C12.2843 67.2322 11.8981 68.1865 11.8315 69.4233V90.3697H0V58.0807H7.81562L9.30907 61.6882C10.4316 60.0998 11.9595 58.8435 13.7327 58.0509C15.4139 57.2915 17.2361 56.8965 19.0799 56.8917C21.1663 56.8537 23.2329 57.3034 25.1158 58.2053C26.8723 59.0746 28.3313 60.4482 29.3072 62.1514C29.899 61.2523 30.6176 60.444 31.4407 59.7518C32.2423 59.0858 33.1243 58.5234 34.0657 58.078C34.9918 57.6359 35.9674 57.3068 36.9716 57.0976C37.9487 56.8929 38.9441 56.7886 39.9423 56.7861C41.5978 56.7786 43.245 57.0224 44.8277 57.5092C46.3228 57.9586 47.7049 58.7232 48.8814 59.7518C50.0763 60.829 51.0173 62.1593 51.636 63.6464C52.3202 65.2281 52.6623 67.1239 52.6623 69.3339V90.3833L40.8362 90.3697Z" fill="white"/>
<path d="M75.5501 90.5349C72.0536 90.5349 69.0028 90.1133 66.3976 89.2701C63.7924 88.4269 61.6238 87.2659 59.8918 85.7872C58.1953 84.3608 56.8638 82.5481 56.0083 80.5005C54.2944 76.1782 54.2944 71.3622 56.0083 67.0399C56.8687 64.9882 58.1992 63.1686 59.8918 61.7288C61.622 60.232 63.7906 59.071 66.3976 58.2459C69.0046 57.4207 72.0554 57.0082 75.5501 57.0082C79.0465 57.0082 82.0982 57.4207 84.7052 58.2459C87.3122 59.071 89.4808 60.232 91.211 61.7288C92.9029 63.1693 94.2332 64.9887 95.0945 67.0399C96.8084 71.3622 96.8084 76.1782 95.0945 80.5005C94.2381 82.5476 92.9067 84.3601 91.211 85.7872C89.479 87.2695 87.3104 88.4305 84.7052 89.2701C82.1 90.1097 79.0483 90.5313 75.5501 90.5349ZM75.5501 81.7653C78.3623 81.7653 80.566 81.1333 82.1612 79.8694C83.7564 78.6055 84.553 76.577 84.5512 73.7837C84.5512 71.0357 83.7546 69.0161 82.1612 67.7251C80.5678 66.4342 78.3641 65.7887 75.5501 65.7887C72.7378 65.7887 70.535 66.4342 68.9416 67.7251C67.3482 69.0161 66.5516 71.0357 66.5516 73.7837C66.5516 76.5715 67.3482 78.6001 68.9416 79.8694C70.535 81.1387 72.7378 81.7707 75.5501 81.7653Z" fill="white"/>
<path d="M98.4379 90.3697V46.2235H110.267V61.2901C111.68 59.7705 113.461 58.6419 115.436 58.013C117.571 57.3287 119.802 56.9895 122.044 57.0082C124.485 56.9702 126.914 57.3625 129.22 58.1674C131.23 58.8653 133.061 60.0024 134.58 61.4966C136.099 62.9907 137.268 64.8045 138.002 66.807C138.818 69.0359 139.219 71.3961 139.185 73.7702C139.218 76.1597 138.758 78.5303 137.835 80.7334C136.998 82.7246 135.76 84.5206 134.197 86.008C132.635 87.4954 130.782 88.6421 128.755 89.3757C126.606 90.1634 124.333 90.557 122.044 90.5376C119.518 90.5636 117.008 90.1258 114.639 89.2457C112.432 88.4294 110.529 86.9526 109.186 85.0153L107.952 90.3697H98.4379ZM118.963 65.7751C118.031 65.7796 117.102 65.8703 116.186 66.046C115.226 66.2245 114.293 66.5277 113.41 66.9478C112.597 67.33 111.864 67.8641 111.25 68.5214C110.677 69.1353 110.332 69.928 110.272 70.7666V76.4921C110.251 77.3855 110.563 78.2546 111.147 78.9296C111.747 79.6156 112.483 80.169 113.308 80.5546C114.197 80.9783 115.139 81.2816 116.108 81.4565C117.049 81.6345 118.005 81.7252 118.963 81.7273C121.536 81.7273 123.576 81.0394 125.085 79.6636C126.594 78.2877 127.348 76.3106 127.348 73.7323C127.348 71.1539 126.594 69.1768 125.085 67.801C123.576 66.4251 121.534 65.7499 118.957 65.7751H118.963Z" fill="white"/>
<path d="M170.79 56.8457H183L159.858 100.992H148.454L155.424 87.1793L137.114 56.8457H149.536L160.804 76.5111L170.79 56.8457Z" fill="white"/>
<path d="M0.097229 44.1462V0H11.926V44.1462H0.097229Z" fill="white"/>
<path d="M33.7821 10.6276C40.1934 10.6276 45.0798 12.0459 48.4411 14.8824C51.8025 17.719 53.4796 21.8546 53.4724 27.2894V30.7967H25.8126C25.8003 31.5105 25.9892 32.2133 26.3576 32.8241C26.7259 33.435 27.2587 33.9292 27.8948 34.2499C29.2469 35.0082 31.2093 35.3865 33.7821 35.3847C34.9285 35.3963 36.0735 35.3057 37.2038 35.1138C37.9956 34.9798 38.7771 34.7907 39.5426 34.5478C40.0278 34.4054 40.488 34.1879 40.9064 33.9032C41.104 33.7788 41.2711 33.6112 41.3952 33.413H53.224C52.367 36.7822 50.2416 39.4129 46.8478 41.3051C43.454 43.1974 39.0988 44.1444 33.7821 44.1462C30.9846 44.1852 28.196 43.8204 25.502 43.0628C23.2386 42.4252 21.1262 41.3375 19.2906 39.8643C17.5796 38.4606 16.2301 36.6651 15.3557 34.629C14.4555 32.549 14.0054 30.1341 14.0054 27.3842C14.0054 24.6758 14.4555 22.2681 15.3557 20.161C16.2248 18.1202 17.5707 16.319 19.2798 14.9095C21.116 13.4373 23.2282 12.3496 25.4912 11.7109C28.1889 10.9538 30.981 10.589 33.7821 10.6276ZM33.7821 19.3972C30.9015 19.3972 28.8616 19.78 27.6625 20.5456C26.4634 21.3111 25.8468 22.2193 25.8126 23.2702V23.7821H41.6518V23.2214C41.6518 22.2013 41.0432 21.3093 39.8261 20.5456C38.6091 19.7818 36.5944 19.399 33.7821 19.3972Z" fill="white"/>
<path d="M75.0397 11.8626C78.3061 11.8626 80.9541 9.20706 80.9541 5.9313C80.9541 2.65553 78.3061 0 75.0397 0C71.7733 0 69.1253 2.65553 69.1253 5.9313C69.1253 9.20706 71.7733 11.8626 75.0397 11.8626Z" fill="#FF8F29"/>
<path d="M85.302 10.6276L75.0342 33.4753L64.7665 10.6276H51.4254L68.6878 44.1543H74.9883H75.0802H81.3807L98.6431 10.6276H85.302Z" fill="white"/>
</svg>
