<svg width="146" height="33" viewBox="0 0 146 33" fill="none" xmlns="http://www.w3.org/2000/svg">
<path d="M23.1219 17.2465C23.0832 13.1494 26.6416 11.1562 26.8044 11.0634C24.7891 8.26288 21.6655 7.88024 20.5678 7.84973C17.9443 7.58659 15.3995 9.34595 14.0631 9.34595C12.7 9.34595 10.6421 7.87516 8.42405 7.91838C5.56984 7.96033 2.89969 9.53536 1.43524 11.9812C-1.58703 16.9681 0.666999 24.2967 3.56256 28.3277C5.011 30.3019 6.70352 32.5062 8.91887 32.4286C11.0862 32.3434 11.8958 31.1116 14.5113 31.1116C17.1027 31.1116 17.8629 32.4286 20.1223 32.379C22.4484 32.3434 23.9128 30.396 25.3106 28.404C26.9844 26.1412 27.6566 23.9128 27.6833 23.7984C27.6286 23.7806 23.1659 22.1572 23.1219 17.2465Z" fill="white"/>
<path d="M18.8539 5.19799C20.0196 3.80855 20.8172 1.91826 20.5958 0C18.9086 0.0711879 16.7986 1.11231 15.5836 2.47124C14.5086 3.66872 13.5483 5.63147 13.7964 7.47727C15.6916 7.61202 17.6375 6.56581 18.8539 5.19799Z" fill="white"/>
<path d="M54.6238 22.65H51.5948L49.9357 17.6809H44.1686L42.5881 22.65H39.6392L45.3529 5.73279H48.882L54.6238 22.65ZM49.4355 15.5961L47.935 11.1786C47.7763 10.7274 47.4789 9.66463 47.0401 7.99172H46.9868C46.812 8.71122 46.5306 9.77395 46.1438 11.1786L44.67 15.5961H49.4355Z" fill="white"/>
<path d="M69.3178 16.4014C69.3178 18.476 68.7296 20.1159 67.5533 21.3197C66.4996 22.3913 65.1912 22.9265 63.6294 22.9265C61.9435 22.9265 60.7325 22.3494 59.9949 21.1951H59.9416V27.6211H57.098V14.4679C57.098 13.1636 57.062 11.8251 56.9927 10.4521H59.4934L59.6522 12.3857H59.7055C60.6538 10.9289 62.0929 10.2017 64.0242 10.2017C65.534 10.2017 66.7944 10.7699 67.8027 11.9077C68.8137 13.0467 69.3178 14.5442 69.3178 16.4014ZM66.4209 16.5005C66.4209 15.3132 66.1408 14.3344 65.578 13.5641C64.9631 12.7607 64.1375 12.359 63.1026 12.359C62.401 12.359 61.7635 12.5827 61.194 13.0238C60.6231 13.4687 60.2497 14.0497 60.075 14.7692C59.9869 15.1048 59.9429 15.3793 59.9429 15.5954V17.6294C59.9429 18.5167 60.2283 19.2654 60.7992 19.8769C61.37 20.4883 62.1116 20.7934 63.0239 20.7934C64.0949 20.7934 64.9285 20.3993 65.5246 19.6137C66.1222 18.8269 66.4209 17.7896 66.4209 16.5005Z" fill="white"/>
<path d="M84.0381 16.4014C84.0381 18.476 83.45 20.1159 82.2723 21.3197C81.2199 22.3913 79.9115 22.9265 78.3497 22.9265C76.6639 22.9265 75.4528 22.3494 74.7166 21.1951H74.6633V27.6211H71.8197V14.4679C71.8197 13.1636 71.7837 11.8251 71.7144 10.4521H74.2151L74.3738 12.3857H74.4272C75.3741 10.9289 76.8133 10.2017 78.7459 10.2017C80.2543 10.2017 81.5147 10.7699 82.5257 11.9077C83.5327 13.0467 84.0381 14.5442 84.0381 16.4014ZM81.1413 16.5005C81.1413 15.3132 80.8598 14.3344 80.297 13.5641C79.6821 12.7607 78.8592 12.359 77.8229 12.359C77.12 12.359 76.4838 12.5827 75.913 13.0238C75.3421 13.4687 74.97 14.0497 74.7953 14.7692C74.7086 15.1048 74.6633 15.3793 74.6633 15.5954V17.6294C74.6633 18.5167 74.9487 19.2654 75.5169 19.8769C76.0877 20.4871 76.8293 20.7934 77.7442 20.7934C78.8152 20.7934 79.6488 20.3993 80.245 19.6137C80.8425 18.8269 81.1413 17.7896 81.1413 16.5005Z" fill="white"/>
<path d="M100.497 17.9063C100.497 19.3453 99.9726 20.5161 98.9203 21.4199C97.7639 22.4076 96.1541 22.9009 94.0854 22.9009C92.1755 22.9009 90.6444 22.55 89.4854 21.847L90.1442 19.5881C91.3926 20.3076 92.7624 20.6686 94.2548 20.6686C95.3258 20.6686 96.1594 20.4372 96.7583 19.9771C97.3544 19.5169 97.6519 18.8991 97.6519 18.1287C97.6519 17.4423 97.4064 16.8639 96.9143 16.3948C96.4248 15.9257 95.6072 15.4897 94.4655 15.0867C91.3579 13.982 89.8055 12.3638 89.8055 10.2358C89.8055 8.84505 90.3496 7.70477 91.4393 6.81746C92.525 5.92888 93.9734 5.48523 95.7846 5.48523C97.3998 5.48523 98.7415 5.75346 99.8125 6.28864L99.1016 8.49801C98.1013 7.97935 96.9703 7.72003 95.7046 7.72003C94.7043 7.72003 93.9227 7.9552 93.3625 8.42301C92.8891 8.84123 92.6517 9.35099 92.6517 9.95482C92.6517 10.6235 92.9224 11.1765 93.4666 11.6112C93.9401 12.0129 94.8003 12.4477 96.0487 12.9167C97.5758 13.5028 98.6975 14.188 99.4191 14.9736C100.138 15.7566 100.497 16.7367 100.497 17.9063Z" fill="white"/>
<path d="M109.898 12.486H106.764V18.4086C106.764 19.915 107.316 20.6675 108.423 20.6675C108.931 20.6675 109.352 20.6256 109.686 20.5417L109.764 22.5998C109.204 22.7993 108.467 22.8998 107.553 22.8998C106.43 22.8998 105.553 22.5731 104.919 21.9209C104.288 21.2675 103.971 20.1717 103.971 18.6323V12.4834H102.104V10.4495H103.971V8.21595L106.764 7.41254V10.4495H109.898V12.486Z" fill="white"/>
<path d="M124.04 16.4502C124.04 18.3253 123.477 19.8647 122.354 21.0686C121.176 22.308 119.613 22.9258 117.664 22.9258C115.787 22.9258 114.291 22.3321 113.176 21.1448C112.061 19.9575 111.504 18.4587 111.504 16.6524C111.504 14.7621 112.077 13.2137 113.228 12.0099C114.377 10.8048 115.927 10.2022 117.875 10.2022C119.753 10.2022 121.264 10.7959 122.405 11.9845C123.496 13.1374 124.04 14.626 124.04 16.4502ZM121.089 16.5379C121.089 15.4129 120.837 14.4481 120.327 13.6434C119.73 12.6696 118.878 12.184 117.774 12.184C116.631 12.184 115.763 12.6709 115.166 13.6434C114.656 14.4493 114.403 15.4294 114.403 16.5888C114.403 17.7138 114.656 18.6787 115.166 19.4821C115.781 20.4558 116.64 20.9414 117.748 20.9414C118.834 20.9414 119.686 20.4457 120.301 19.4567C120.825 18.6367 121.089 17.6617 121.089 16.5379Z" fill="white"/>
<path d="M133.282 12.8356C133.001 12.7861 132.701 12.7606 132.386 12.7606C131.386 12.7606 130.612 13.1204 130.068 13.8412C129.595 14.4768 129.357 15.2802 129.357 16.2501V22.6506H126.515L126.542 14.2937C126.542 12.8878 126.506 11.6077 126.435 10.4534H128.912L129.016 12.7873H129.095C129.395 11.9852 129.868 11.3394 130.516 10.8551C131.15 10.4191 131.834 10.2017 132.572 10.2017C132.834 10.2017 133.072 10.2195 133.282 10.2513V12.8356Z" fill="white"/>
<path d="M146 15.9749C146 16.4605 145.967 16.8698 145.896 17.2042H137.365C137.399 18.4093 137.811 19.3309 138.603 19.9665C139.322 20.5347 140.252 20.8195 141.393 20.8195C142.656 20.8195 143.809 20.6275 144.845 20.2424L145.291 22.1238C144.08 22.6272 142.65 22.8776 141 22.8776C139.015 22.8776 137.458 22.3208 136.324 21.2085C135.193 20.0962 134.626 18.6025 134.626 16.7287C134.626 14.8893 135.153 13.3575 136.208 12.1358C137.312 10.8316 138.805 10.1794 140.682 10.1794C142.527 10.1794 143.923 10.8316 144.872 12.1358C145.623 13.1719 146 14.4533 146 15.9749ZM143.289 15.2719C143.307 14.4685 143.122 13.7744 142.736 13.1884C142.244 12.4346 141.488 12.0583 140.47 12.0583C139.541 12.0583 138.785 12.4257 138.207 13.163C137.734 13.749 137.452 14.452 137.365 15.2706H143.289V15.2719Z" fill="white"/>
</svg>
