<svg width="183" height="56" viewBox="0 0 183 56" fill="none" xmlns="http://www.w3.org/2000/svg">
<rect width="183" height="56" rx="7" fill="white"/>
<path d="M40.8399 27.6995C40.8006 23.218 44.4172 21.0378 44.5826 20.9363C42.5343 17.873 39.3596 17.4545 38.244 17.4211C35.5776 17.1333 32.9912 19.0577 31.633 19.0577C30.2476 19.0577 28.156 17.449 25.9017 17.4962C23.0008 17.5421 20.287 19.2649 18.7986 21.9402C15.7269 27.395 18.0178 35.4111 20.9607 39.8203C22.4328 41.9797 24.153 44.3908 26.4046 44.306C28.6074 44.2128 29.4302 42.8654 32.0884 42.8654C34.7223 42.8654 35.4949 44.306 37.7912 44.2517C40.1553 44.2128 41.6437 42.0826 43.0644 39.9037C44.7656 37.4287 45.4488 34.9912 45.4759 34.866C45.4203 34.8466 40.8846 33.0709 40.8399 27.6995Z" fill="#2D2D2D"/>
<path d="M36.5021 14.5206C37.6869 13.0008 38.4975 10.9332 38.2725 8.83496C36.5577 8.91283 34.4132 10.0516 33.1783 11.538C32.0857 12.8479 31.1097 14.9948 31.3618 17.0137C33.2881 17.1611 35.2658 16.0168 36.5021 14.5206Z" fill="#2D2D2D"/>
<path d="M72.7189 43.9961H69.6405L67.9542 38.5607H62.0927L60.4864 43.9961H57.4893L63.2965 25.4917H66.8833L72.7189 43.9961ZM67.4458 36.2803L65.9208 31.4485C65.7595 30.9548 65.4572 29.7924 65.0112 27.9626H64.957C64.7794 28.7496 64.4934 29.912 64.1003 31.4485L62.6024 36.2803H67.4458V36.2803Z" fill="#2D2D2D"/>
<path d="M87.6537 37.1607C87.6537 39.43 87.0559 41.2237 85.8603 42.5404C84.7894 43.7126 83.4596 44.298 81.8722 44.298C80.1588 44.298 78.9279 43.6667 78.1783 42.4042H78.1241V49.433H75.234V35.0458C75.234 33.6192 75.1974 32.155 75.127 30.6533H77.6686L77.8299 32.7682H77.8842C78.848 31.1747 80.3106 30.3794 82.2734 30.3794C83.8079 30.3794 85.0889 31.0009 86.1137 32.2454C87.1413 33.4913 87.6537 35.1292 87.6537 37.1607ZM84.7094 37.2692C84.7094 35.9705 84.4247 34.8998 83.8527 34.0572C83.2278 33.1784 82.3887 32.739 81.3368 32.739C80.6237 32.739 79.9758 32.9837 79.397 33.4662C78.8168 33.9529 78.4372 34.5883 78.2596 35.3753C78.1702 35.7424 78.1254 36.0428 78.1254 36.2792V38.5039C78.1254 39.4744 78.4155 40.2934 78.9957 40.9623C79.5759 41.6311 80.3296 41.9648 81.2568 41.9648C82.3453 41.9648 83.1925 41.5337 83.7984 40.6744C84.4057 39.8137 84.7094 38.6791 84.7094 37.2692Z" fill="#2D2D2D"/>
<path d="M102.614 37.1607C102.614 39.43 102.016 41.2237 100.819 42.5404C99.7499 43.7126 98.4201 44.298 96.8328 44.298C95.1193 44.298 93.8885 43.6667 93.1402 42.4042H93.086V49.433H90.196V35.0458C90.196 33.6192 90.1594 32.155 90.0889 30.6533H92.6305L92.7918 32.7682H92.8461C93.8085 31.1747 95.2712 30.3794 97.2354 30.3794C98.7685 30.3794 100.049 31.0009 101.077 32.2454C102.1 33.4913 102.614 35.1292 102.614 37.1607ZM99.6699 37.2692C99.6699 35.9705 99.3839 34.8998 98.8119 34.0572C98.187 33.1784 97.3506 32.739 96.2973 32.739C95.5829 32.739 94.9363 32.9837 94.3562 33.4662C93.776 33.9529 93.3978 34.5883 93.2202 35.3753C93.1321 35.7424 93.086 36.0428 93.086 36.2792V38.5039C93.086 39.4744 93.3761 40.2934 93.9536 40.9623C94.5337 41.6297 95.2874 41.9648 96.2173 41.9648C97.3058 41.9648 98.1531 41.5337 98.759 40.6744C99.3663 39.8137 99.6699 38.6791 99.6699 37.2692Z" fill="#2D2D2D"/>
<path d="M119.342 38.8071C119.342 40.3811 118.809 41.6617 117.74 42.6503C116.564 43.7307 114.928 44.2702 112.826 44.2702C110.885 44.2702 109.328 43.8865 108.15 43.1175L108.82 40.6467C110.089 41.4337 111.481 41.8286 112.998 41.8286C114.086 41.8286 114.934 41.5755 115.542 41.0721C116.148 40.5688 116.45 39.893 116.45 39.0504C116.45 38.2995 116.201 37.6669 115.701 37.1538C115.203 36.6407 114.372 36.1638 113.212 35.723C110.054 34.5147 108.476 32.7446 108.476 30.4169C108.476 28.8957 109.029 27.6485 110.136 26.6779C111.24 25.706 112.712 25.2207 114.553 25.2207C116.194 25.2207 117.558 25.5141 118.646 26.0995L117.924 28.5161C116.907 27.9488 115.758 27.6652 114.471 27.6652C113.455 27.6652 112.66 27.9224 112.091 28.4341C111.61 28.8916 111.368 29.4491 111.368 30.1096C111.368 30.841 111.644 31.4459 112.197 31.9214C112.678 32.3608 113.552 32.8363 114.821 33.3494C116.373 33.9904 117.513 34.7399 118.247 35.5992C118.977 36.4558 119.342 37.5278 119.342 38.8071Z" fill="#2D2D2D"/>
<path d="M128.897 32.8778H125.712V39.356C125.712 41.0037 126.273 41.8269 127.398 41.8269C127.915 41.8269 128.343 41.781 128.682 41.6892L128.762 43.9404C128.193 44.1587 127.443 44.2686 126.514 44.2686C125.373 44.2686 124.481 43.9112 123.837 43.1979C123.196 42.4832 122.873 41.2846 122.873 39.6007V32.875H120.976V30.6502H122.873V28.2072L125.712 27.3284V30.6502H128.897V32.8778Z" fill="#2D2D2D"/>
<path d="M143.27 37.2148C143.27 39.2658 142.698 40.9496 141.557 42.2664C140.36 43.6221 138.771 44.2979 136.791 44.2979C134.882 44.2979 133.362 43.6486 132.229 42.3498C131.096 41.0511 130.529 39.4118 130.529 37.4359C130.529 35.3683 131.112 33.6747 132.282 32.3579C133.449 31.0397 135.024 30.3806 137.005 30.3806C138.913 30.3806 140.449 31.03 141.608 32.3301C142.717 33.5912 143.27 35.2195 143.27 37.2148ZM140.272 37.3108C140.272 36.0802 140.015 35.0248 139.496 34.1446C138.89 33.0795 138.024 32.5484 136.902 32.5484C135.74 32.5484 134.858 33.0809 134.252 34.1446C133.732 35.0262 133.476 36.0983 133.476 37.3664C133.476 38.5969 133.732 39.6523 134.252 40.5311C134.877 41.5962 135.75 42.1274 136.876 42.1274C137.979 42.1274 138.846 41.5851 139.471 40.5033C140.003 39.6064 140.272 38.5399 140.272 37.3108Z" fill="#2D2D2D"/>
<path d="M152.664 33.2604C152.378 33.2062 152.073 33.1784 151.754 33.1784C150.737 33.1784 149.951 33.5719 149.398 34.3603C148.916 35.0555 148.675 35.9343 148.675 36.9952V43.9962H145.786L145.814 34.8553C145.814 33.3174 145.777 31.9172 145.705 30.6547H148.222L148.328 33.2076H148.408C148.713 32.3302 149.194 31.6239 149.853 31.0941C150.497 30.6172 151.192 30.3794 151.942 30.3794C152.209 30.3794 152.45 30.3989 152.664 30.4336V33.2604Z" fill="#2D2D2D"/>
<path d="M165.589 36.6934C165.589 37.2246 165.556 37.6723 165.484 38.038H156.814C156.847 39.3562 157.266 40.3643 158.072 41.0595C158.802 41.6811 159.747 41.9925 160.907 41.9925C162.191 41.9925 163.362 41.7826 164.416 41.3613L164.868 43.4192C163.637 43.9698 162.184 44.2437 160.507 44.2437C158.49 44.2437 156.907 43.6347 155.755 42.418C154.605 41.2013 154.029 39.5675 154.029 37.518C154.029 35.506 154.565 33.8304 155.637 32.4942C156.759 31.0676 158.276 30.3542 160.185 30.3542C162.06 30.3542 163.479 31.0676 164.443 32.4942C165.206 33.6274 165.589 35.029 165.589 36.6934ZM162.834 35.9245C162.853 35.0457 162.664 34.2865 162.272 33.6455C161.772 32.821 161.004 32.4094 159.969 32.4094C159.024 32.4094 158.256 32.8112 157.669 33.6177C157.188 34.2587 156.902 35.0276 156.814 35.9231H162.834V35.9245Z" fill="#2D2D2D"/>
<path d="M60.328 19.078C60.1807 19.078 60.0073 19.0693 59.808 19.052C59.6173 19.0433 59.418 19.026 59.21 19C59.0107 18.9827 58.82 18.961 58.638 18.935C58.456 18.9003 58.3 18.8657 58.17 18.831V10.16C58.326 10.1167 58.4993 10.082 58.69 10.056C58.8807 10.0213 59.0757 9.99533 59.275 9.978C59.483 9.952 59.6823 9.93467 59.873 9.926C60.0723 9.91733 60.2543 9.913 60.419 9.913C60.9043 9.913 61.3637 9.952 61.797 10.03C62.239 10.108 62.6247 10.238 62.954 10.42C63.2833 10.602 63.5433 10.8447 63.734 11.148C63.9333 11.4427 64.033 11.811 64.033 12.253C64.033 12.7383 63.9073 13.1543 63.656 13.501C63.4133 13.839 63.084 14.073 62.668 14.203C62.928 14.2637 63.1663 14.3503 63.383 14.463C63.5997 14.5757 63.7903 14.723 63.955 14.905C64.1197 15.0783 64.2453 15.295 64.332 15.555C64.4273 15.8063 64.475 16.1097 64.475 16.465C64.475 17.3143 64.137 17.9643 63.461 18.415C62.785 18.857 61.7407 19.078 60.328 19.078ZM59.054 14.684V18.233C59.184 18.2503 59.379 18.272 59.639 18.298C59.899 18.3153 60.1633 18.324 60.432 18.324C60.8307 18.324 61.2163 18.298 61.589 18.246C61.9703 18.194 62.304 18.0987 62.59 17.96C62.876 17.8213 63.1057 17.6307 63.279 17.388C63.4523 17.1453 63.539 16.8333 63.539 16.452C63.539 16.1053 63.4783 15.8193 63.357 15.594C63.2357 15.36 63.0623 15.178 62.837 15.048C62.6117 14.9093 62.3343 14.814 62.005 14.762C61.6843 14.71 61.3247 14.684 60.926 14.684H59.054ZM59.054 13.93H60.77C61.0907 13.93 61.394 13.9083 61.68 13.865C61.966 13.813 62.213 13.7263 62.421 13.605C62.6377 13.475 62.8067 13.306 62.928 13.098C63.0493 12.8813 63.11 12.6083 63.11 12.279C63.11 11.9843 63.045 11.7373 62.915 11.538C62.785 11.33 62.5987 11.161 62.356 11.031C62.122 10.901 61.8403 10.81 61.511 10.758C61.1817 10.6973 60.8177 10.667 60.419 10.667C60.0983 10.667 59.8253 10.6757 59.6 10.693C59.3833 10.7103 59.2013 10.732 59.054 10.758V13.93ZM69.0755 18.389C69.4048 18.389 69.6908 18.3803 69.9335 18.363C70.1848 18.337 70.3971 18.3067 70.5705 18.272V15.906C70.4751 15.8627 70.3235 15.8193 70.1155 15.776C69.9075 15.724 69.6215 15.698 69.2575 15.698C69.0495 15.698 68.8328 15.7153 68.6075 15.75C68.3821 15.776 68.1741 15.841 67.9835 15.945C67.7928 16.0403 67.6368 16.1747 67.5155 16.348C67.3941 16.5213 67.3335 16.751 67.3335 17.037C67.3335 17.2883 67.3725 17.5007 67.4505 17.674C67.5371 17.8473 67.6541 17.986 67.8015 18.09C67.9575 18.194 68.1395 18.272 68.3475 18.324C68.5641 18.3673 68.8068 18.389 69.0755 18.389ZM68.9975 12.123C69.4395 12.123 69.8121 12.188 70.1155 12.318C70.4275 12.4393 70.6788 12.6127 70.8695 12.838C71.0601 13.0547 71.1988 13.3147 71.2855 13.618C71.3721 13.9213 71.4155 14.2507 71.4155 14.606V18.844C71.3288 18.87 71.2031 18.9003 71.0385 18.935C70.8738 18.961 70.6831 18.9913 70.4665 19.026C70.2498 19.0607 70.0071 19.0867 69.7385 19.104C69.4785 19.13 69.2098 19.143 68.9325 19.143C68.5771 19.143 68.2478 19.104 67.9445 19.026C67.6498 18.948 67.3898 18.8267 67.1645 18.662C66.9478 18.4887 66.7745 18.272 66.6445 18.012C66.5231 17.7433 66.4625 17.4183 66.4625 17.037C66.4625 16.673 66.5318 16.361 66.6705 16.101C66.8091 15.841 67.0041 15.6287 67.2555 15.464C67.5068 15.2907 67.8058 15.165 68.1525 15.087C68.4991 15.009 68.8761 14.97 69.2835 14.97C69.4048 14.97 69.5305 14.9787 69.6605 14.996C69.7991 15.0047 69.9291 15.022 70.0505 15.048C70.1805 15.0653 70.2888 15.087 70.3755 15.113C70.4708 15.1303 70.5358 15.1477 70.5705 15.165V14.749C70.5705 14.515 70.5531 14.2897 70.5185 14.073C70.4838 13.8477 70.4058 13.6483 70.2845 13.475C70.1718 13.293 70.0071 13.15 69.7905 13.046C69.5825 12.9333 69.3051 12.877 68.9585 12.877C68.4645 12.877 68.0961 12.9117 67.8535 12.981C67.6108 13.0503 67.4331 13.1067 67.3205 13.15L67.2035 12.409C67.3508 12.3397 67.5761 12.2747 67.8795 12.214C68.1915 12.1533 68.5641 12.123 68.9975 12.123ZM75.0657 19H74.2207V12.279H75.0657V19ZM75.2607 10.251C75.2607 10.4503 75.2001 10.6107 75.0787 10.732C74.9574 10.8447 74.8101 10.901 74.6367 10.901C74.4634 10.901 74.3161 10.8447 74.1947 10.732C74.0734 10.6107 74.0127 10.4503 74.0127 10.251C74.0127 10.0517 74.0734 9.89567 74.1947 9.783C74.3161 9.66167 74.4634 9.601 74.6367 9.601C74.8101 9.601 74.9574 9.66167 75.0787 9.783C75.2001 9.89567 75.2607 10.0517 75.2607 10.251ZM80.0617 15.958C79.871 16.2093 79.6804 16.4737 79.4897 16.751C79.299 17.0283 79.1127 17.3013 78.9307 17.57C78.7574 17.8387 78.597 18.0987 78.4497 18.35C78.3024 18.5927 78.1767 18.8093 78.0727 19H77.2017C77.557 18.3327 77.9297 17.713 78.3197 17.141C78.7097 16.5603 79.1084 15.9927 79.5157 15.438L77.3317 12.279H78.3197L80.0617 14.853L81.8297 12.279H82.7527L80.6077 15.386C80.7897 15.6287 80.9847 15.893 81.1927 16.179C81.4007 16.465 81.6087 16.764 81.8167 17.076C82.0247 17.3793 82.224 17.6957 82.4147 18.025C82.614 18.3543 82.796 18.6793 82.9607 19H82.0507C81.9467 18.8093 81.821 18.5927 81.6737 18.35C81.5264 18.0987 81.3617 17.8387 81.1797 17.57C81.0064 17.3013 80.82 17.0283 80.6207 16.751C80.43 16.4737 80.2437 16.2093 80.0617 15.958ZM87.212 18.389C87.5413 18.389 87.8273 18.3803 88.07 18.363C88.3213 18.337 88.5337 18.3067 88.707 18.272V15.906C88.6117 15.8627 88.46 15.8193 88.252 15.776C88.044 15.724 87.758 15.698 87.394 15.698C87.186 15.698 86.9693 15.7153 86.744 15.75C86.5187 15.776 86.3107 15.841 86.12 15.945C85.9293 16.0403 85.7733 16.1747 85.652 16.348C85.5307 16.5213 85.47 16.751 85.47 17.037C85.47 17.2883 85.509 17.5007 85.587 17.674C85.6737 17.8473 85.7907 17.986 85.938 18.09C86.094 18.194 86.276 18.272 86.484 18.324C86.7007 18.3673 86.9433 18.389 87.212 18.389ZM87.134 12.123C87.576 12.123 87.9487 12.188 88.252 12.318C88.564 12.4393 88.8153 12.6127 89.006 12.838C89.1967 13.0547 89.3353 13.3147 89.422 13.618C89.5087 13.9213 89.552 14.2507 89.552 14.606V18.844C89.4653 18.87 89.3397 18.9003 89.175 18.935C89.0103 18.961 88.8197 18.9913 88.603 19.026C88.3863 19.0607 88.1437 19.0867 87.875 19.104C87.615 19.13 87.3463 19.143 87.069 19.143C86.7137 19.143 86.3843 19.104 86.081 19.026C85.7863 18.948 85.5263 18.8267 85.301 18.662C85.0843 18.4887 84.911 18.272 84.781 18.012C84.6597 17.7433 84.599 17.4183 84.599 17.037C84.599 16.673 84.6683 16.361 84.807 16.101C84.9457 15.841 85.1407 15.6287 85.392 15.464C85.6433 15.2907 85.9423 15.165 86.289 15.087C86.6357 15.009 87.0127 14.97 87.42 14.97C87.5413 14.97 87.667 14.9787 87.797 14.996C87.9357 15.0047 88.0657 15.022 88.187 15.048C88.317 15.0653 88.4253 15.087 88.512 15.113C88.6073 15.1303 88.6723 15.1477 88.707 15.165V14.749C88.707 14.515 88.6897 14.2897 88.655 14.073C88.6203 13.8477 88.5423 13.6483 88.421 13.475C88.3083 13.293 88.1437 13.15 87.927 13.046C87.719 12.9333 87.4417 12.877 87.095 12.877C86.601 12.877 86.2327 12.9117 85.99 12.981C85.7473 13.0503 85.5697 13.1067 85.457 13.15L85.34 12.409C85.4873 12.3397 85.7127 12.2747 86.016 12.214C86.328 12.1533 86.7007 12.123 87.134 12.123ZM94.6453 12.149C94.9226 12.149 95.1826 12.1707 95.4253 12.214C95.6766 12.2573 95.8499 12.3007 95.9453 12.344L95.7763 13.072C95.7069 13.0373 95.5639 13.0027 95.3473 12.968C95.1393 12.9247 94.8619 12.903 94.5153 12.903C94.1513 12.903 93.8566 12.929 93.6313 12.981C93.4146 13.033 93.2716 13.0763 93.2023 13.111V19H92.3573V12.591C92.5739 12.4957 92.8729 12.4003 93.2543 12.305C93.6356 12.201 94.0993 12.149 94.6453 12.149ZM101.478 12.513C101.729 12.4437 102.067 12.3657 102.492 12.279C102.916 12.1923 103.436 12.149 104.052 12.149C104.563 12.149 104.988 12.2227 105.326 12.37C105.672 12.5173 105.945 12.7297 106.145 13.007C106.353 13.2757 106.5 13.6007 106.587 13.982C106.673 14.3633 106.717 14.7837 106.717 15.243V19H105.872V15.516C105.872 15.0393 105.837 14.6363 105.768 14.307C105.707 13.9777 105.599 13.709 105.443 13.501C105.295 13.293 105.096 13.1457 104.845 13.059C104.602 12.9637 104.294 12.916 103.922 12.916C103.523 12.916 103.176 12.9377 102.882 12.981C102.596 13.0243 102.409 13.0633 102.323 13.098V19H101.478V12.513ZM111.648 18.389C111.977 18.389 112.263 18.3803 112.506 18.363C112.757 18.337 112.97 18.3067 113.143 18.272V15.906C113.048 15.8627 112.896 15.8193 112.688 15.776C112.48 15.724 112.194 15.698 111.83 15.698C111.622 15.698 111.405 15.7153 111.18 15.75C110.955 15.776 110.747 15.841 110.556 15.945C110.365 16.0403 110.209 16.1747 110.088 16.348C109.967 16.5213 109.906 16.751 109.906 17.037C109.906 17.2883 109.945 17.5007 110.023 17.674C110.11 17.8473 110.227 17.986 110.374 18.09C110.53 18.194 110.712 18.272 110.92 18.324C111.137 18.3673 111.379 18.389 111.648 18.389ZM111.57 12.123C112.012 12.123 112.385 12.188 112.688 12.318C113 12.4393 113.251 12.6127 113.442 12.838C113.633 13.0547 113.771 13.3147 113.858 13.618C113.945 13.9213 113.988 14.2507 113.988 14.606V18.844C113.901 18.87 113.776 18.9003 113.611 18.935C113.446 18.961 113.256 18.9913 113.039 19.026C112.822 19.0607 112.58 19.0867 112.311 19.104C112.051 19.13 111.782 19.143 111.505 19.143C111.15 19.143 110.82 19.104 110.517 19.026C110.222 18.948 109.962 18.8267 109.737 18.662C109.52 18.4887 109.347 18.272 109.217 18.012C109.096 17.7433 109.035 17.4183 109.035 17.037C109.035 16.673 109.104 16.361 109.243 16.101C109.382 15.841 109.577 15.6287 109.828 15.464C110.079 15.2907 110.378 15.165 110.725 15.087C111.072 15.009 111.449 14.97 111.856 14.97C111.977 14.97 112.103 14.9787 112.233 14.996C112.372 15.0047 112.502 15.022 112.623 15.048C112.753 15.0653 112.861 15.087 112.948 15.113C113.043 15.1303 113.108 15.1477 113.143 15.165V14.749C113.143 14.515 113.126 14.2897 113.091 14.073C113.056 13.8477 112.978 13.6483 112.857 13.475C112.744 13.293 112.58 13.15 112.363 13.046C112.155 12.9333 111.878 12.877 111.531 12.877C111.037 12.877 110.669 12.9117 110.426 12.981C110.183 13.0503 110.006 13.1067 109.893 13.15L109.776 12.409C109.923 12.3397 110.149 12.2747 110.452 12.214C110.764 12.1533 111.137 12.123 111.57 12.123Z" fill="#2D2D2D"/>
</svg>
