<svg width="146" height="32" viewBox="0 0 146 32" fill="none" xmlns="http://www.w3.org/2000/svg">
<path d="M73.2331 11.0952C70.2758 11.0952 67.8599 13.2432 67.8599 16.2069C67.8599 19.1466 70.2758 21.3172 73.2331 21.3172C76.1966 21.3172 78.6125 19.1466 78.6125 16.2069C78.6125 13.2432 76.1966 11.0952 73.2331 11.0952ZM73.2331 19.3043C71.6104 19.3043 70.2144 18.026 70.2144 16.2069C70.2144 14.3638 71.6104 13.108 73.2331 13.108C74.8557 13.108 76.258 14.3638 76.258 16.2069C76.258 18.026 74.8557 19.3043 73.2331 19.3043ZM61.5094 11.0952C58.5458 11.0952 56.1363 13.2432 56.1363 16.2069C56.1363 19.1466 58.5458 21.3172 61.5094 21.3172C64.4714 21.3172 66.8826 19.1466 66.8826 16.2069C66.8826 13.2432 64.4714 11.0952 61.5094 11.0952ZM61.5094 19.3043C59.8852 19.3043 58.4845 18.026 58.4845 16.2069C58.4845 14.3638 59.8852 13.108 61.5094 13.108C63.1321 13.108 64.5281 14.3638 64.5281 16.2069C64.5281 18.026 63.1321 19.3043 61.5094 19.3043ZM47.5588 12.6619V14.834H52.9933C52.8343 16.0477 52.4094 16.94 51.7578 17.5619C50.9646 18.3129 49.7291 19.1466 47.5588 19.1466C44.2143 19.1466 41.5954 16.5704 41.5954 13.3784C41.5954 10.1864 44.2143 7.61024 47.5588 7.61024C49.3671 7.61024 50.6829 8.2847 51.6539 9.15894L53.2577 7.62827C51.8995 6.39051 50.0927 5.43966 47.5588 5.43966C42.9725 5.43966 39.1182 9.00122 39.1182 13.3784C39.1182 17.7556 42.9725 21.3172 47.5588 21.3172C50.0376 21.3172 51.8994 20.5421 53.3631 19.088C54.863 17.6565 55.3305 15.6436 55.3305 14.0183C55.3305 13.5136 55.2864 13.0495 55.2077 12.6619H47.5588ZM104.605 14.3458C104.162 13.2027 102.798 11.0952 100.019 11.0952C97.2643 11.0952 94.9712 13.1666 94.9712 16.2069C94.9712 19.07 97.2407 21.3172 100.283 21.3172C102.743 21.3172 104.162 19.8856 104.746 19.052L102.921 17.8908C102.312 18.741 101.482 19.3043 100.283 19.3043C99.0915 19.3043 98.2369 18.7831 97.6892 17.7556L104.852 14.9271L104.605 14.3458ZM97.3021 16.0477C97.2407 14.0769 98.9058 13.0675 100.099 13.0675C101.034 13.0675 101.827 13.5136 102.091 14.152L97.3021 16.0477ZM91.4804 21.0062H93.8348V5.98493H91.4804V21.0062ZM87.6244 12.2338H87.5457C87.0169 11.6359 86.0081 11.0952 84.7301 11.0952C82.0482 11.0952 79.5962 13.3424 79.5962 16.2235C79.5962 19.088 82.0482 21.3172 84.7301 21.3172C86.0081 21.3172 87.0169 20.7719 87.5457 20.156H87.6244V20.8891C87.6244 22.8433 86.5306 23.8933 84.7663 23.8933C83.3278 23.8933 82.4354 22.9019 82.0671 22.0682L80.0195 22.8839C80.6097 24.2388 82.1726 25.9062 84.7663 25.9062C87.5268 25.9062 89.8561 24.356 89.8561 20.5841V11.4061H87.6244V12.2338ZM84.9315 19.3043C83.3089 19.3043 81.9507 18.008 81.9507 16.2235C81.9507 14.4224 83.3089 13.108 84.9315 13.108C86.5306 13.108 87.7912 14.4224 87.7912 16.2235C87.7912 18.008 86.5306 19.3043 84.9315 19.3043ZM115.628 5.98493H109.997V21.0062H112.345V15.3147H115.628C118.236 15.3147 120.793 13.5136 120.793 10.649C120.793 7.78599 118.23 5.98493 115.628 5.98493ZM115.689 13.2252H112.345V8.0744H115.689C117.443 8.0744 118.444 9.46387 118.444 10.649C118.444 11.8117 117.443 13.2252 115.689 13.2252ZM130.205 11.0666C128.508 11.0666 126.744 11.7817 126.019 13.3664L128.102 14.2001C128.551 13.3664 129.376 13.096 130.248 13.096C131.466 13.096 132.701 13.7945 132.72 15.0278V15.1855C132.295 14.9512 131.385 14.6042 130.266 14.6042C128.022 14.6042 125.735 15.7833 125.735 17.984C125.735 19.9968 127.574 21.2931 129.64 21.2931C131.22 21.2931 132.092 20.6127 132.64 19.8211H132.72V20.9822H134.988V15.22C134.988 12.5568 132.904 11.0666 130.205 11.0666ZM129.922 19.2983C129.154 19.2983 128.084 18.9348 128.084 18.026C128.084 16.8634 129.418 16.4172 130.573 16.4172C131.607 16.4172 132.092 16.635 132.72 16.9219C132.536 18.3129 131.282 19.2983 129.922 19.2983ZM143.251 11.3956L140.552 17.9073H140.471L137.681 11.3956H135.149L139.341 20.4955L136.949 25.5592H139.403L145.863 11.3956H143.251ZM122.084 21.0062H124.438V5.98493H122.084V21.0062Z" fill="white"/>
<path d="M15.5605 15.6001L0.763495 1.48306C0.67965 1.6976 0.626495 1.97196 0.626495 2.31521V28.8909C0.626495 29.2318 0.678931 29.5048 0.761791 29.7187L15.5605 15.6001Z" stroke="white"/>
<path d="M21.582 11.2221L27.4547 14.4113L27.456 14.412C28.2257 14.8276 28.4484 15.2849 28.4484 15.5998C28.4484 15.9152 28.2251 16.374 27.4552 16.7926L21.582 11.2221ZM21.582 11.2221L16.9959 15.5992L21.5785 19.9783L27.4546 16.7929L21.582 11.2221Z" stroke="white"/>
<mask id="path-4-inside-1_928_130" fill="white">
<path d="M21.5966 20.6753L16.2785 15.5996L0.583984 30.5804C1.16789 31.1662 2.12007 31.2368 3.20288 30.651L21.5966 20.6753Z"/>
</mask>
<path d="M16.2785 15.5996L15.4081 14.7088L16.2784 13.878L17.1489 14.7088L16.2785 15.5996ZM0.583984 30.5804L-0.308635 31.4495L-1.19672 30.5584L-0.286448 29.6896L0.583984 30.5804ZM3.20288 30.651L3.80565 31.7367L3.80452 31.7373L3.20288 30.651ZM20.7262 21.5662L15.4081 16.4905L17.1489 14.7088L22.4669 19.7845L20.7262 21.5662ZM17.1489 16.4904L1.45442 31.4712L-0.286448 29.6896L15.4081 14.7088L17.1489 16.4904ZM1.4766 29.7113C1.53136 29.7662 1.60772 29.8117 1.75643 29.8176C1.92316 29.8242 2.20735 29.7778 2.60124 29.5647L3.80452 31.7373C2.43852 32.4763 0.812862 32.5747 -0.308635 31.4495L1.4766 29.7113ZM2.60012 29.5653L20.9938 19.5896L22.1993 21.761L3.80565 31.7367L2.60012 29.5653Z" fill="white" mask="url(#path-4-inside-1_928_130)"/>
<path d="M16.2784 14.7382L20.5496 10.6617L2.90445 1.09209C2.90399 1.09184 2.90353 1.0916 2.90307 1.09135C2.3868 0.81516 1.96841 0.736916 1.64378 0.774786L16.2784 14.7382Z" stroke="white"/>
</svg>
