<svg width="146" height="146" viewBox="0 0 146 146" fill="none" xmlns="http://www.w3.org/2000/svg">
<path d="M0 73C0 113.317 32.6832 146 73 146C113.317 146 146 113.317 146 73C146 32.6832 113.317 0 73 0C32.6832 0 0 32.6832 0 73Z" fill="white"/>
<path d="M24.1484 94.827V51.173H35.8751V94.827H24.1484Z" fill="#2DC6EA"/>
<path d="M57.5474 61.6821C63.9032 61.6821 68.7475 63.0847 72.0802 65.8898C75.4129 68.695 77.0783 72.783 77.0763 78.1538V81.6228H49.64C49.6292 82.3285 49.817 83.0231 50.182 83.6272C50.5471 84.2313 51.0746 84.7206 51.7045 85.0392C53.0477 85.7867 54.9943 86.1605 57.5445 86.1605C58.6798 86.1754 59.8142 86.0904 60.9346 85.9064C61.7198 85.7707 62.4953 85.5834 63.256 85.3458C63.7364 85.2047 64.1916 84.9889 64.605 84.7063C64.8017 84.5842 64.9676 84.4183 65.0897 84.2216H76.8194C75.9667 87.5523 73.8585 90.1531 70.4947 92.0238C67.1308 93.8946 62.8141 94.8299 57.5445 94.8299C54.775 94.8648 52.0149 94.503 49.348 93.7554C47.0998 93.1265 45.0014 92.051 43.178 90.593C41.483 89.2054 40.146 87.4309 39.2799 85.4188C38.3688 83.3689 37.9143 80.9813 37.9162 78.256C37.8701 75.8085 38.3304 73.3778 39.2682 71.1166C40.1306 69.095 41.4678 67.311 43.1664 65.9161C44.9931 64.4567 47.0956 63.3811 49.348 62.7537C52.0157 62.0054 54.777 61.6445 57.5474 61.6821ZM57.5474 70.3516C54.6916 70.3516 52.669 70.7292 51.4796 71.4845C50.2902 72.2398 49.677 73.1343 49.64 74.168V74.6732H65.3496V74.1184C65.3496 73.11 64.7461 72.2282 63.5392 71.4729C62.3323 70.7175 60.335 70.3438 57.5474 70.3516Z" fill="#2DC6EA"/>
<path d="M98.4507 62.9026C101.689 62.9026 104.314 60.2775 104.314 57.0393C104.314 53.801 101.689 51.1759 98.4507 51.1759C95.2125 51.1759 92.5873 53.801 92.5873 57.0393C92.5873 60.2775 95.2125 62.9026 98.4507 62.9026Z" fill="#FF8F29"/>
<path d="M108.624 61.6821L98.4449 84.2683L88.2657 61.6821H75.0382L92.1523 94.827H104.737L121.852 61.6821H108.624Z" fill="#2DC6EA"/>
</svg>
