<svg width="191" height="109" viewBox="0 0 191 109" fill="none" xmlns="http://www.w3.org/2000/svg">
<g filter="url(#filter0_d_928_104)">
<path d="M44.8362 90.3697V69.3339C44.8541 68.8364 44.7722 68.3404 44.5955 67.8752C44.4187 67.41 44.1507 66.985 43.8073 66.6256C43.1213 65.9214 42.0582 65.5693 40.6178 65.5693C39.1073 65.5693 38.0018 65.9386 37.3015 66.677C36.9599 67.0284 36.691 67.444 36.5102 67.9C36.3295 68.356 36.2404 68.8433 36.2482 69.3339V90.3833H24.4168V69.3339C24.4345 68.8367 24.3529 68.3409 24.1766 67.8757C24.0004 67.4106 23.7331 66.9855 23.3905 66.6256C22.7064 65.9124 21.6441 65.5558 20.2038 65.5558C18.7634 65.5558 17.6922 65.8907 16.99 66.5606C16.2843 67.2322 15.8981 68.1865 15.8315 69.4233V90.3697H4V58.0807H11.8156L13.3091 61.6882C14.4316 60.0998 15.9595 58.8435 17.7327 58.0509C19.4139 57.2915 21.2361 56.8965 23.0799 56.8917C25.1663 56.8537 27.2329 57.3034 29.1158 58.2053C30.8723 59.0746 32.3313 60.4482 33.3072 62.1514C33.899 61.2523 34.6176 60.444 35.4407 59.7518C36.2423 59.0858 37.1243 58.5234 38.0657 58.078C38.9918 57.6359 39.9674 57.3068 40.9716 57.0976C41.9487 56.8929 42.9441 56.7886 43.9423 56.7861C45.5978 56.7786 47.245 57.0224 48.8277 57.5092C50.3228 57.9586 51.7049 58.7232 52.8814 59.7518C54.0763 60.829 55.0173 62.1593 55.636 63.6464C56.3202 65.2281 56.6623 67.1239 56.6623 69.3339V90.3833L44.8362 90.3697Z" fill="white"/>
<path d="M79.5503 90.5349C76.0539 90.5349 73.0031 90.1133 70.3979 89.2701C67.7927 88.4269 65.6241 87.2659 63.8921 85.7872C62.1956 84.3608 60.864 82.5481 60.0086 80.5005C58.2947 76.1782 58.2947 71.3622 60.0086 67.0399C60.869 64.9882 62.1994 63.1686 63.8921 61.7288C65.6223 60.232 67.7909 59.071 70.3979 58.2459C73.0049 57.4207 76.0557 57.0082 79.5503 57.0082C83.0467 57.0082 86.0984 57.4207 88.7054 58.2459C91.3124 59.071 93.481 60.232 95.2112 61.7288C96.9031 63.1693 98.2334 64.9887 99.0947 67.0399C100.809 71.3622 100.809 76.1782 99.0947 80.5005C98.2384 82.5476 96.907 84.3601 95.2112 85.7872C93.4792 87.2695 91.3106 88.4305 88.7054 89.2701C86.1002 90.1097 83.0485 90.5313 79.5503 90.5349ZM79.5503 81.7653C82.3626 81.7653 84.5663 81.1333 86.1614 79.8694C87.7566 78.6055 88.5533 76.577 88.5515 73.7837C88.5515 71.0357 87.7548 69.0161 86.1614 67.7251C84.5681 66.4342 82.3644 65.7887 79.5503 65.7887C76.738 65.7887 74.5352 66.4342 72.9419 67.7251C71.3485 69.0161 70.5518 71.0357 70.5518 73.7837C70.5518 76.5715 71.3485 78.6001 72.9419 79.8694C74.5352 81.1387 76.738 81.7707 79.5503 81.7653Z" fill="white"/>
<path d="M102.438 90.3697V46.2235H114.267V61.2901C115.68 59.7705 117.461 58.6419 119.436 58.013C121.571 57.3287 123.802 56.9895 126.044 57.0082C128.485 56.9702 130.914 57.3625 133.22 58.1674C135.23 58.8653 137.061 60.0024 138.58 61.4966C140.099 62.9907 141.268 64.8045 142.002 66.807C142.818 69.0359 143.219 71.3961 143.185 73.7702C143.218 76.1597 142.758 78.5303 141.835 80.7334C140.999 82.7246 139.76 84.5206 138.197 86.008C136.635 87.4954 134.782 88.6421 132.755 89.3757C130.606 90.1634 128.333 90.557 126.044 90.5376C123.518 90.5636 121.008 90.1258 118.639 89.2457C116.432 88.4294 114.529 86.9526 113.186 85.0153L111.952 90.3697H102.438ZM122.963 65.7751C122.031 65.7796 121.102 65.8703 120.187 66.046C119.226 66.2245 118.293 66.5277 117.41 66.9478C116.597 67.33 115.864 67.8641 115.25 68.5214C114.677 69.1353 114.332 69.928 114.272 70.7666V76.4921C114.251 77.3855 114.563 78.2546 115.147 78.9296C115.747 79.6156 116.483 80.169 117.308 80.5546C118.197 80.9783 119.139 81.2816 120.108 81.4565C121.049 81.6345 122.005 81.7252 122.963 81.7273C125.536 81.7273 127.576 81.0394 129.085 79.6636C130.594 78.2877 131.348 76.3106 131.348 73.7323C131.348 71.1539 130.594 69.1768 129.085 67.801C127.576 66.4251 125.534 65.7499 122.957 65.7751H122.963Z" fill="white"/>
<path d="M174.791 56.8457H187L163.858 100.992H152.454L159.424 87.1793L141.114 56.8457H153.537L164.804 76.5111L174.791 56.8457Z" fill="white"/>
<path d="M4.09717 44.1462V0H15.9259V44.1462H4.09717Z" fill="white"/>
<path d="M37.7821 10.6276C44.1934 10.6276 49.0797 12.0459 52.4411 14.8824C55.8025 17.719 57.4796 21.8546 57.4724 27.2894V30.7967H29.8125C29.8002 31.5105 29.9891 32.2133 30.3575 32.8241C30.7258 33.435 31.2587 33.9292 31.8947 34.2499C33.2468 35.0082 35.2093 35.3865 37.7821 35.3847C38.9284 35.3963 40.0735 35.3057 41.2038 35.1138C41.9955 34.9798 42.777 34.7907 43.5425 34.5478C44.0278 34.4054 44.4879 34.1879 44.9063 33.9032C45.104 33.7788 45.2711 33.6112 45.3951 33.413H57.2239C56.3669 36.7822 54.2415 39.4129 50.8477 41.3051C47.4539 43.1974 43.0987 44.1444 37.7821 44.1462C34.9845 44.1852 32.1959 43.8204 29.5019 43.0628C27.2385 42.4252 25.1261 41.3375 23.2905 39.8643C21.5796 38.4606 20.2301 36.6651 19.3557 34.629C18.4555 32.549 18.0054 30.1341 18.0054 27.3842C18.0054 24.6758 18.4555 22.2681 19.3557 20.161C20.2248 18.1202 21.5706 16.319 23.2797 14.9095C25.116 13.4373 27.2281 12.3496 29.4911 11.7109C32.1889 10.9538 34.981 10.589 37.7821 10.6276ZM37.7821 19.3972C34.9014 19.3972 32.8615 19.78 31.6624 20.5456C30.4634 21.3111 29.8467 22.2193 29.8125 23.2702V23.7821H45.6517V23.2214C45.6517 22.2013 45.0432 21.3093 43.8261 20.5456C42.609 19.7818 40.5943 19.399 37.7821 19.3972Z" fill="white"/>
<path d="M79.0399 11.8626C82.3063 11.8626 84.9542 9.20706 84.9542 5.9313C84.9542 2.65553 82.3063 0 79.0399 0C75.7734 0 73.1255 2.65553 73.1255 5.9313C73.1255 9.20706 75.7734 11.8626 79.0399 11.8626Z" fill="#FF8F29"/>
<path d="M89.302 10.6276L79.0342 33.4753L68.7664 10.6276H55.4253L72.6877 44.1543H78.9883H79.0801H85.3807L102.643 10.6276H89.302Z" fill="white"/>
</g>
<defs>
<filter id="filter0_d_928_104" x="0" y="0" width="191" height="108.992" filterUnits="userSpaceOnUse" color-interpolation-filters="sRGB">
<feFlood flood-opacity="0" result="BackgroundImageFix"/>
<feColorMatrix in="SourceAlpha" type="matrix" values="0 0 0 0 0 0 0 0 0 0 0 0 0 0 0 0 0 0 127 0" result="hardAlpha"/>
<feOffset dy="4"/>
<feGaussianBlur stdDeviation="2"/>
<feComposite in2="hardAlpha" operator="out"/>
<feColorMatrix type="matrix" values="0 0 0 0 0 0 0 0 0 0 0 0 0 0 0 0 0 0 0.25 0"/>
<feBlend mode="normal" in2="BackgroundImageFix" result="effect1_dropShadow_928_104"/>
<feBlend mode="normal" in="SourceGraphic" in2="effect1_dropShadow_928_104" result="shape"/>
</filter>
</defs>
</svg>
