<svg width="82" height="37" viewBox="0 0 82 37" fill="none" xmlns="http://www.w3.org/2000/svg">
  <path d="M0 37V0H9.84196V37H0Z" fill="white" />
  <path d="M28.031 8.91017C33.3604 8.91017 37.4261 10.0974 40.2281 12.4718C43.03 14.8462 44.4277 18.3114 44.4212 22.8672V25.8051H21.397C21.3866 26.4048 21.5436 26.9954 21.85 27.5093C22.1564 28.0232 22.5999 28.4396 23.1296 28.7108C24.2569 29.3477 25.8907 29.6654 28.031 29.6637C28.9839 29.677 29.9362 29.6041 30.8762 29.4459C31.5399 29.3338 32.195 29.175 32.8368 28.9707C33.2398 28.8518 33.6219 28.6697 33.969 28.4311C34.1336 28.327 34.2727 28.1865 34.3758 28.0203H44.2202C43.5063 30.8435 41.7369 33.048 38.9121 34.6337C36.0872 36.2194 32.4643 37.0114 28.0432 37.0098C25.7151 37.0421 23.3943 36.7371 21.1519 36.1039C19.2603 35.5684 17.495 34.6534 15.9614 33.4135C14.5386 32.2364 13.4166 30.7314 12.6897 29.0252C11.9316 27.2827 11.5534 25.2589 11.555 22.9538C11.5158 20.8791 11.9021 18.8187 12.6897 16.9022C13.4123 15.1878 14.5347 13.6755 15.9614 12.4941C17.4922 11.2592 19.2532 10.3476 21.1397 9.81357C23.3822 9.1812 25.7029 8.87697 28.031 8.91017ZM28.031 16.2587C25.6342 16.2587 23.9367 16.5796 22.9385 17.2215C21.9402 17.8634 21.4264 18.6249 21.397 19.506V19.9317H34.5792V19.459C34.5792 18.6042 34.0728 17.8568 33.0598 17.2165C32.0469 16.5763 30.3706 16.2554 28.031 16.2537V16.2587Z" fill="white" />
  <path d="M62.3602 9.93993C65.078 9.93993 67.2812 7.7148 67.2812 4.96996C67.2812 2.22513 65.078 0 62.3602 0C59.6424 0 57.4392 2.22513 57.4392 4.96996C57.4392 7.7148 59.6424 9.93993 62.3602 9.93993Z" fill="white" />
  <path d="M70.8984 8.90527L62.3553 28.0525L53.8122 8.90527H42.7106L57.074 36.9999H62.3161H62.3945H67.6365L82 8.90527H70.8984Z" fill="white" />
</svg>