<svg width="150" height="59" viewBox="0 0 150 59" fill="none" xmlns="http://www.w3.org/2000/svg">
<path d="M37.6391 19.3984C46.5699 7.41214 60.4939 0 75.4415 0C90.3891 0 104.316 7.40948 113.213 19.4208C125.716 36.2998 143.088 58.0645 149.533 58.0645C160.059 58.0645 -10.7957 58.0645 0.540512 58.0645C7.48408 58.0645 25.0604 36.2805 37.6391 19.3984Z" fill="white"/>
<path d="M75.0024 24.3733C76.386 24.3733 77.5076 23.1705 77.5076 21.6867C77.5076 20.2029 76.386 19 75.0024 19C73.6189 19 72.4973 20.2029 72.4973 21.6867C72.4973 23.1705 73.6189 24.3733 75.0024 24.3733Z" fill="#FF8F29"/>
<path d="M79.3484 23.8143L75 34.1632L70.6513 23.8143H65L72.312 38.9999H77.688L85 23.8143H79.3484Z" fill="#2DC6EA"/>
</svg>
