<svg width="103" height="1340" viewBox="0 0 103 1340" fill="none" xmlns="http://www.w3.org/2000/svg">
<circle cx="92.5" cy="15.5" r="10.5" fill="#FF8F29"/>
<circle cx="92.5" cy="543.5" r="5.5" fill="#FF8F29"/>
<circle cx="92.5" cy="900.5" r="5.5" fill="#FF8F29"/>
<circle cx="92.5" cy="1334.5" r="5.5" fill="#FF8F29"/>
<circle cx="92.5" cy="169.5" r="5.5" fill="#FF8F29"/>
<circle cx="92.5" cy="263.5" r="5.5" fill="#FF8F29"/>
<circle cx="92.5" cy="450.5" r="10.5" fill="#FF8F29"/>
<circle cx="92.5" cy="746.5" r="10.5" fill="#FF8F29"/>
<circle cx="92.5" cy="1117.5" r="10.5" fill="#FF8F29"/>
<line x1="92.5" y1="15" x2="92.5001" y2="1334" stroke="#FF8F29" stroke-width="3"/>
<path d="M11.904 11.736C11.904 12.344 11.784 12.928 11.544 13.488C11.304 14.048 10.992 14.592 10.608 15.12C10.224 15.632 9.792 16.128 9.312 16.608C8.832 17.088 8.36 17.544 7.896 17.976C7.656 18.2 7.392 18.456 7.104 18.744C6.832 19.016 6.568 19.296 6.312 19.584C6.056 19.872 5.824 20.144 5.616 20.4C5.424 20.64 5.304 20.84 5.256 21H12.408V24H1.32C1.288 23.824 1.272 23.6 1.272 23.328C1.272 23.056 1.272 22.864 1.272 22.752C1.272 21.984 1.392 21.28 1.632 20.64C1.888 20 2.216 19.408 2.616 18.864C3.016 18.304 3.464 17.784 3.96 17.304C4.472 16.824 4.976 16.344 5.472 15.864C5.856 15.496 6.216 15.152 6.552 14.832C6.888 14.496 7.184 14.176 7.44 13.872C7.696 13.552 7.896 13.24 8.04 12.936C8.184 12.616 8.256 12.296 8.256 11.976C8.256 11.272 8.056 10.776 7.656 10.488C7.256 10.2 6.76 10.056 6.168 10.056C5.736 10.056 5.328 10.128 4.944 10.272C4.576 10.4 4.232 10.56 3.912 10.752C3.608 10.928 3.344 11.112 3.12 11.304C2.896 11.48 2.728 11.624 2.616 11.736L0.84 9.24C1.544 8.584 2.36 8.048 3.288 7.632C4.232 7.2 5.24 6.984 6.312 6.984C7.288 6.984 8.128 7.096 8.832 7.32C9.536 7.544 10.112 7.864 10.56 8.28C11.024 8.68 11.36 9.176 11.568 9.768C11.792 10.344 11.904 11 11.904 11.736ZM27.6566 15.648C27.6566 18.448 27.1206 20.6 26.0486 22.104C24.9926 23.592 23.5286 24.336 21.6566 24.336C19.7846 24.336 18.3126 23.592 17.2406 22.104C16.1846 20.6 15.6566 18.448 15.6566 15.648C15.6566 14.256 15.7926 13.024 16.0646 11.952C16.3526 10.88 16.7606 9.976 17.2886 9.24C17.8166 8.504 18.4486 7.944 19.1846 7.56C19.9206 7.176 20.7446 6.984 21.6566 6.984C23.5286 6.984 24.9926 7.736 26.0486 9.24C27.1206 10.728 27.6566 12.864 27.6566 15.648ZM24.0086 15.648C24.0086 14.816 23.9686 14.064 23.8886 13.392C23.8086 12.704 23.6806 12.112 23.5046 11.616C23.3286 11.12 23.0886 10.736 22.7846 10.464C22.4806 10.192 22.1046 10.056 21.6566 10.056C21.2086 10.056 20.8326 10.192 20.5286 10.464C20.2406 10.736 20.0006 11.12 19.8086 11.616C19.6326 12.112 19.5046 12.704 19.4246 13.392C19.3446 14.064 19.3046 14.816 19.3046 15.648C19.3046 16.48 19.3446 17.24 19.4246 17.928C19.5046 18.616 19.6326 19.208 19.8086 19.704C20.0006 20.2 20.2406 20.584 20.5286 20.856C20.8326 21.128 21.2086 21.264 21.6566 21.264C22.1046 21.264 22.4806 21.128 22.7846 20.856C23.0886 20.584 23.3286 20.2 23.5046 19.704C23.6806 19.208 23.8086 18.616 23.8886 17.928C23.9686 17.24 24.0086 16.48 24.0086 15.648ZM31.3612 10.824C31.8252 10.632 32.3052 10.416 32.8012 10.176C33.3132 9.92 33.8092 9.648 34.2892 9.36C34.7692 9.056 35.2253 8.744 35.6572 8.424C36.1052 8.088 36.5052 7.736 36.8573 7.368H39.3533V24H35.7772V12.024C35.2972 12.344 34.7612 12.64 34.1692 12.912C33.5772 13.168 33.0012 13.392 32.4412 13.584L31.3612 10.824ZM57.2419 19.368C57.2419 20.088 57.1139 20.752 56.8579 21.36C56.6179 21.952 56.2499 22.472 55.7539 22.92C55.2579 23.368 54.6339 23.72 53.8819 23.976C53.1459 24.216 52.2899 24.336 51.3139 24.336C50.1939 24.336 49.2579 24.184 48.5059 23.88C47.7699 23.56 47.1699 23.168 46.7059 22.704C46.2579 22.24 45.9379 21.736 45.7459 21.192C45.5539 20.632 45.4579 20.12 45.4579 19.656C45.4579 19.176 45.5219 18.736 45.6499 18.336C45.7779 17.936 45.9539 17.576 46.1779 17.256C46.4019 16.92 46.6499 16.616 46.9219 16.344C47.2099 16.072 47.5139 15.816 47.8339 15.576C47.1459 15.016 46.6339 14.464 46.2979 13.92C45.9779 13.376 45.8179 12.68 45.8179 11.832C45.8179 11.192 45.9459 10.576 46.2019 9.984C46.4739 9.392 46.8499 8.88 47.3299 8.448C47.8099 8 48.3859 7.648 49.0579 7.392C49.7459 7.12 50.5059 6.984 51.3379 6.984C52.3139 6.984 53.1459 7.128 53.8339 7.416C54.5379 7.688 55.1139 8.04 55.5619 8.472C56.0099 8.904 56.3299 9.392 56.5219 9.936C56.7299 10.464 56.8339 10.992 56.8339 11.52C56.8339 12.288 56.6259 13.008 56.2099 13.68C55.8099 14.336 55.3059 14.856 54.6979 15.24C55.6099 15.832 56.2579 16.456 56.6419 17.112C57.0419 17.752 57.2419 18.504 57.2419 19.368ZM48.9379 19.512C48.9379 19.704 48.9779 19.92 49.0579 20.16C49.1539 20.384 49.2979 20.592 49.4899 20.784C49.6819 20.976 49.9299 21.136 50.2339 21.264C50.5379 21.392 50.9059 21.456 51.3379 21.456C52.1699 21.456 52.7779 21.256 53.1619 20.856C53.5459 20.456 53.7379 20.008 53.7379 19.512C53.7379 19.144 53.6499 18.816 53.4739 18.528C53.3139 18.24 53.0899 17.992 52.8019 17.784C52.5139 17.56 52.1699 17.368 51.7699 17.208C51.3859 17.032 50.9699 16.872 50.5219 16.728C50.0739 17.064 49.6979 17.456 49.3939 17.904C49.0899 18.352 48.9379 18.888 48.9379 19.512ZM53.3779 11.616C53.3779 11.44 53.3379 11.256 53.2579 11.064C53.1939 10.856 53.0739 10.664 52.8979 10.488C52.7379 10.312 52.5299 10.168 52.2739 10.056C52.0179 9.928 51.7059 9.864 51.3379 9.864C50.9859 9.864 50.6819 9.92 50.4259 10.032C50.1699 10.144 49.9539 10.296 49.7779 10.488C49.6179 10.664 49.4979 10.856 49.4179 11.064C49.3379 11.272 49.2979 11.472 49.2979 11.664C49.2979 12.176 49.4819 12.656 49.8499 13.104C50.2339 13.552 50.8819 13.936 51.7939 14.256C52.3059 13.936 52.6979 13.568 52.9699 13.152C53.2419 12.736 53.3779 12.224 53.3779 11.616Z" fill="#FF8F29"/>
<path d="M11.904 446.736C11.904 447.344 11.784 447.928 11.544 448.488C11.304 449.048 10.992 449.592 10.608 450.12C10.224 450.632 9.792 451.128 9.312 451.608C8.832 452.088 8.36 452.544 7.896 452.976C7.656 453.2 7.392 453.456 7.104 453.744C6.832 454.016 6.568 454.296 6.312 454.584C6.056 454.872 5.824 455.144 5.616 455.4C5.424 455.64 5.304 455.84 5.256 456H12.408V459H1.32C1.288 458.824 1.272 458.6 1.272 458.328C1.272 458.056 1.272 457.864 1.272 457.752C1.272 456.984 1.392 456.28 1.632 455.64C1.888 455 2.216 454.408 2.616 453.864C3.016 453.304 3.464 452.784 3.96 452.304C4.472 451.824 4.976 451.344 5.472 450.864C5.856 450.496 6.216 450.152 6.552 449.832C6.888 449.496 7.184 449.176 7.44 448.872C7.696 448.552 7.896 448.24 8.04 447.936C8.184 447.616 8.256 447.296 8.256 446.976C8.256 446.272 8.056 445.776 7.656 445.488C7.256 445.2 6.76 445.056 6.168 445.056C5.736 445.056 5.328 445.128 4.944 445.272C4.576 445.4 4.232 445.56 3.912 445.752C3.608 445.928 3.344 446.112 3.12 446.304C2.896 446.48 2.728 446.624 2.616 446.736L0.84 444.24C1.544 443.584 2.36 443.048 3.288 442.632C4.232 442.2 5.24 441.984 6.312 441.984C7.288 441.984 8.128 442.096 8.832 442.32C9.536 442.544 10.112 442.864 10.56 443.28C11.024 443.68 11.36 444.176 11.568 444.768C11.792 445.344 11.904 446 11.904 446.736ZM27.6566 450.648C27.6566 453.448 27.1206 455.6 26.0486 457.104C24.9926 458.592 23.5286 459.336 21.6566 459.336C19.7846 459.336 18.3126 458.592 17.2406 457.104C16.1846 455.6 15.6566 453.448 15.6566 450.648C15.6566 449.256 15.7926 448.024 16.0646 446.952C16.3526 445.88 16.7606 444.976 17.2886 444.24C17.8166 443.504 18.4486 442.944 19.1846 442.56C19.9206 442.176 20.7446 441.984 21.6566 441.984C23.5286 441.984 24.9926 442.736 26.0486 444.24C27.1206 445.728 27.6566 447.864 27.6566 450.648ZM24.0086 450.648C24.0086 449.816 23.9686 449.064 23.8886 448.392C23.8086 447.704 23.6806 447.112 23.5046 446.616C23.3286 446.12 23.0886 445.736 22.7846 445.464C22.4806 445.192 22.1046 445.056 21.6566 445.056C21.2086 445.056 20.8326 445.192 20.5286 445.464C20.2406 445.736 20.0006 446.12 19.8086 446.616C19.6326 447.112 19.5046 447.704 19.4246 448.392C19.3446 449.064 19.3046 449.816 19.3046 450.648C19.3046 451.48 19.3446 452.24 19.4246 452.928C19.5046 453.616 19.6326 454.208 19.8086 454.704C20.0006 455.2 20.2406 455.584 20.5286 455.856C20.8326 456.128 21.2086 456.264 21.6566 456.264C22.1046 456.264 22.4806 456.128 22.7846 455.856C23.0886 455.584 23.3286 455.2 23.5046 454.704C23.6806 454.208 23.8086 453.616 23.8886 452.928C23.9686 452.24 24.0086 451.48 24.0086 450.648ZM31.3612 445.824C31.8252 445.632 32.3052 445.416 32.8012 445.176C33.3132 444.92 33.8092 444.648 34.2892 444.36C34.7692 444.056 35.2253 443.744 35.6572 443.424C36.1052 443.088 36.5052 442.736 36.8573 442.368H39.3533V459H35.7772V447.024C35.2972 447.344 34.7612 447.64 34.1692 447.912C33.5772 448.168 33.0012 448.392 32.4412 448.584L31.3612 445.824ZM51.4579 450.072C51.8259 450.072 52.2099 450.04 52.6099 449.976C53.0099 449.896 53.3059 449.792 53.4979 449.664V449.448C53.4979 449.384 53.4979 449.32 53.4979 449.256C53.5139 449.192 53.5219 449.136 53.5219 449.088C53.5059 448.512 53.4579 447.976 53.3779 447.48C53.2979 446.968 53.1619 446.528 52.9699 446.16C52.7779 445.776 52.5139 445.48 52.1779 445.272C51.8579 445.048 51.4579 444.936 50.9779 444.936C50.5939 444.936 50.2579 445.016 49.9699 445.176C49.6819 445.336 49.4499 445.544 49.2739 445.8C49.0979 446.056 48.9619 446.336 48.8659 446.64C48.7859 446.944 48.7459 447.24 48.7459 447.528C48.7459 448.392 48.9539 449.032 49.3699 449.448C49.8019 449.864 50.4979 450.072 51.4579 450.072ZM53.2099 452.4C52.8739 452.56 52.4979 452.68 52.0819 452.76C51.6819 452.824 51.3379 452.856 51.0499 452.856C50.0099 452.856 49.1219 452.736 48.3859 452.496C47.6499 452.24 47.0419 451.888 46.5619 451.44C46.0979 450.976 45.7539 450.424 45.5299 449.784C45.3059 449.144 45.1939 448.44 45.1939 447.672C45.1939 447.032 45.2979 446.376 45.5059 445.704C45.7299 445.032 46.0739 444.424 46.5379 443.88C47.0019 443.32 47.5859 442.864 48.2899 442.512C49.0099 442.144 49.8739 441.96 50.8819 441.96C52.9459 441.96 54.4979 442.6 55.5379 443.88C56.5939 445.144 57.1219 446.968 57.1219 449.352C57.1219 450.92 56.9139 452.304 56.4979 453.504C56.0979 454.704 55.4659 455.712 54.6019 456.528C53.7539 457.344 52.6659 457.968 51.3379 458.4C50.0099 458.816 48.4339 459.032 46.6099 459.048C46.5939 458.536 46.5699 458.04 46.5379 457.56C46.5059 457.08 46.4739 456.584 46.4419 456.072C47.3539 456.056 48.1779 455.992 48.9139 455.88C49.6499 455.752 50.2979 455.552 50.8579 455.28C51.4179 454.992 51.8899 454.616 52.2739 454.152C52.6739 453.688 52.9859 453.104 53.2099 452.4Z" fill="#FF8F29"/>
<path d="M11.904 742.736C11.904 743.344 11.784 743.928 11.544 744.488C11.304 745.048 10.992 745.592 10.608 746.12C10.224 746.632 9.792 747.128 9.312 747.608C8.832 748.088 8.36 748.544 7.896 748.976C7.656 749.2 7.392 749.456 7.104 749.744C6.832 750.016 6.568 750.296 6.312 750.584C6.056 750.872 5.824 751.144 5.616 751.4C5.424 751.64 5.304 751.84 5.256 752H12.408V755H1.32C1.288 754.824 1.272 754.6 1.272 754.328C1.272 754.056 1.272 753.864 1.272 753.752C1.272 752.984 1.392 752.28 1.632 751.64C1.888 751 2.216 750.408 2.616 749.864C3.016 749.304 3.464 748.784 3.96 748.304C4.472 747.824 4.976 747.344 5.472 746.864C5.856 746.496 6.216 746.152 6.552 745.832C6.888 745.496 7.184 745.176 7.44 744.872C7.696 744.552 7.896 744.24 8.04 743.936C8.184 743.616 8.256 743.296 8.256 742.976C8.256 742.272 8.056 741.776 7.656 741.488C7.256 741.2 6.76 741.056 6.168 741.056C5.736 741.056 5.328 741.128 4.944 741.272C4.576 741.4 4.232 741.56 3.912 741.752C3.608 741.928 3.344 742.112 3.12 742.304C2.896 742.48 2.728 742.624 2.616 742.736L0.84 740.24C1.544 739.584 2.36 739.048 3.288 738.632C4.232 738.2 5.24 737.984 6.312 737.984C7.288 737.984 8.128 738.096 8.832 738.32C9.536 738.544 10.112 738.864 10.56 739.28C11.024 739.68 11.36 740.176 11.568 740.768C11.792 741.344 11.904 742 11.904 742.736ZM27.6566 746.648C27.6566 749.448 27.1206 751.6 26.0486 753.104C24.9926 754.592 23.5286 755.336 21.6566 755.336C19.7846 755.336 18.3126 754.592 17.2406 753.104C16.1846 751.6 15.6566 749.448 15.6566 746.648C15.6566 745.256 15.7926 744.024 16.0646 742.952C16.3526 741.88 16.7606 740.976 17.2886 740.24C17.8166 739.504 18.4486 738.944 19.1846 738.56C19.9206 738.176 20.7446 737.984 21.6566 737.984C23.5286 737.984 24.9926 738.736 26.0486 740.24C27.1206 741.728 27.6566 743.864 27.6566 746.648ZM24.0086 746.648C24.0086 745.816 23.9686 745.064 23.8886 744.392C23.8086 743.704 23.6806 743.112 23.5046 742.616C23.3286 742.12 23.0886 741.736 22.7846 741.464C22.4806 741.192 22.1046 741.056 21.6566 741.056C21.2086 741.056 20.8326 741.192 20.5286 741.464C20.2406 741.736 20.0006 742.12 19.8086 742.616C19.6326 743.112 19.5046 743.704 19.4246 744.392C19.3446 745.064 19.3046 745.816 19.3046 746.648C19.3046 747.48 19.3446 748.24 19.4246 748.928C19.5046 749.616 19.6326 750.208 19.8086 750.704C20.0006 751.2 20.2406 751.584 20.5286 751.856C20.8326 752.128 21.2086 752.264 21.6566 752.264C22.1046 752.264 22.4806 752.128 22.7846 751.856C23.0886 751.584 23.3286 751.2 23.5046 750.704C23.6806 750.208 23.8086 749.616 23.8886 748.928C23.9686 748.24 24.0086 747.48 24.0086 746.648ZM41.5853 742.736C41.5853 743.344 41.4653 743.928 41.2253 744.488C40.9853 745.048 40.6733 745.592 40.2893 746.12C39.9053 746.632 39.4732 747.128 38.9932 747.608C38.5132 748.088 38.0412 748.544 37.5773 748.976C37.3372 749.2 37.0732 749.456 36.7852 749.744C36.5132 750.016 36.2492 750.296 35.9932 750.584C35.7372 750.872 35.5052 751.144 35.2972 751.4C35.1053 751.64 34.9852 751.84 34.9372 752H42.0893V755H31.0012C30.9692 754.824 30.9532 754.6 30.9532 754.328C30.9532 754.056 30.9532 753.864 30.9532 753.752C30.9532 752.984 31.0732 752.28 31.3132 751.64C31.5692 751 31.8972 750.408 32.2972 749.864C32.6972 749.304 33.1452 748.784 33.6412 748.304C34.1532 747.824 34.6572 747.344 35.1532 746.864C35.5372 746.496 35.8972 746.152 36.2332 745.832C36.5692 745.496 36.8652 745.176 37.1212 744.872C37.3772 744.552 37.5772 744.24 37.7212 743.936C37.8652 743.616 37.9372 743.296 37.9372 742.976C37.9372 742.272 37.7372 741.776 37.3372 741.488C36.9372 741.2 36.4412 741.056 35.8492 741.056C35.4172 741.056 35.0092 741.128 34.6252 741.272C34.2572 741.4 33.9132 741.56 33.5932 741.752C33.2892 741.928 33.0252 742.112 32.8012 742.304C32.5772 742.48 32.4092 742.624 32.2972 742.736L30.5212 740.24C31.2252 739.584 32.0412 739.048 32.9692 738.632C33.9132 738.2 34.9212 737.984 35.9932 737.984C36.9692 737.984 37.8092 738.096 38.5133 738.32C39.2173 738.544 39.7933 738.864 40.2413 739.28C40.7053 739.68 41.0412 740.176 41.2493 740.768C41.4733 741.344 41.5853 742 41.5853 742.736ZM46.2019 741.824C46.6659 741.632 47.1459 741.416 47.6419 741.176C48.1539 740.92 48.6499 740.648 49.1299 740.36C49.6099 740.056 50.0659 739.744 50.4979 739.424C50.9459 739.088 51.3459 738.736 51.6979 738.368H54.1939V755H50.6179V743.024C50.1379 743.344 49.6019 743.64 49.0099 743.912C48.4179 744.168 47.8419 744.392 47.2819 744.584L46.2019 741.824Z" fill="#FF8F29"/>
<path d="M11.904 1113.74C11.904 1114.34 11.784 1114.93 11.544 1115.49C11.304 1116.05 10.992 1116.59 10.608 1117.12C10.224 1117.63 9.792 1118.13 9.312 1118.61C8.832 1119.09 8.36 1119.54 7.896 1119.98C7.656 1120.2 7.392 1120.46 7.104 1120.74C6.832 1121.02 6.568 1121.3 6.312 1121.58C6.056 1121.87 5.824 1122.14 5.616 1122.4C5.424 1122.64 5.304 1122.84 5.256 1123H12.408V1126H1.32C1.288 1125.82 1.272 1125.6 1.272 1125.33C1.272 1125.06 1.272 1124.86 1.272 1124.75C1.272 1123.98 1.392 1123.28 1.632 1122.64C1.888 1122 2.216 1121.41 2.616 1120.86C3.016 1120.3 3.464 1119.78 3.96 1119.3C4.472 1118.82 4.976 1118.34 5.472 1117.86C5.856 1117.5 6.216 1117.15 6.552 1116.83C6.888 1116.5 7.184 1116.18 7.44 1115.87C7.696 1115.55 7.896 1115.24 8.04 1114.94C8.184 1114.62 8.256 1114.3 8.256 1113.98C8.256 1113.27 8.056 1112.78 7.656 1112.49C7.256 1112.2 6.76 1112.06 6.168 1112.06C5.736 1112.06 5.328 1112.13 4.944 1112.27C4.576 1112.4 4.232 1112.56 3.912 1112.75C3.608 1112.93 3.344 1113.11 3.12 1113.3C2.896 1113.48 2.728 1113.62 2.616 1113.74L0.84 1111.24C1.544 1110.58 2.36 1110.05 3.288 1109.63C4.232 1109.2 5.24 1108.98 6.312 1108.98C7.288 1108.98 8.128 1109.1 8.832 1109.32C9.536 1109.54 10.112 1109.86 10.56 1110.28C11.024 1110.68 11.36 1111.18 11.568 1111.77C11.792 1112.34 11.904 1113 11.904 1113.74ZM27.6566 1117.65C27.6566 1120.45 27.1206 1122.6 26.0486 1124.1C24.9926 1125.59 23.5286 1126.34 21.6566 1126.34C19.7846 1126.34 18.3126 1125.59 17.2406 1124.1C16.1846 1122.6 15.6566 1120.45 15.6566 1117.65C15.6566 1116.26 15.7926 1115.02 16.0646 1113.95C16.3526 1112.88 16.7606 1111.98 17.2886 1111.24C17.8166 1110.5 18.4486 1109.94 19.1846 1109.56C19.9206 1109.18 20.7446 1108.98 21.6566 1108.98C23.5286 1108.98 24.9926 1109.74 26.0486 1111.24C27.1206 1112.73 27.6566 1114.86 27.6566 1117.65ZM24.0086 1117.65C24.0086 1116.82 23.9686 1116.06 23.8886 1115.39C23.8086 1114.7 23.6806 1114.11 23.5046 1113.62C23.3286 1113.12 23.0886 1112.74 22.7846 1112.46C22.4806 1112.19 22.1046 1112.06 21.6566 1112.06C21.2086 1112.06 20.8326 1112.19 20.5286 1112.46C20.2406 1112.74 20.0006 1113.12 19.8086 1113.62C19.6326 1114.11 19.5046 1114.7 19.4246 1115.39C19.3446 1116.06 19.3046 1116.82 19.3046 1117.65C19.3046 1118.48 19.3446 1119.24 19.4246 1119.93C19.5046 1120.62 19.6326 1121.21 19.8086 1121.7C20.0006 1122.2 20.2406 1122.58 20.5286 1122.86C20.8326 1123.13 21.2086 1123.26 21.6566 1123.26C22.1046 1123.26 22.4806 1123.13 22.7846 1122.86C23.0886 1122.58 23.3286 1122.2 23.5046 1121.7C23.6806 1121.21 23.8086 1120.62 23.8886 1119.93C23.9686 1119.24 24.0086 1118.48 24.0086 1117.65ZM41.5853 1113.74C41.5853 1114.34 41.4653 1114.93 41.2253 1115.49C40.9853 1116.05 40.6733 1116.59 40.2893 1117.12C39.9053 1117.63 39.4732 1118.13 38.9932 1118.61C38.5132 1119.09 38.0412 1119.54 37.5773 1119.98C37.3372 1120.2 37.0732 1120.46 36.7852 1120.74C36.5132 1121.02 36.2492 1121.3 35.9932 1121.58C35.7372 1121.87 35.5052 1122.14 35.2972 1122.4C35.1053 1122.64 34.9852 1122.84 34.9372 1123H42.0893V1126H31.0012C30.9692 1125.82 30.9532 1125.6 30.9532 1125.33C30.9532 1125.06 30.9532 1124.86 30.9532 1124.75C30.9532 1123.98 31.0732 1123.28 31.3132 1122.64C31.5692 1122 31.8972 1121.41 32.2972 1120.86C32.6972 1120.3 33.1452 1119.78 33.6412 1119.3C34.1532 1118.82 34.6572 1118.34 35.1532 1117.86C35.5372 1117.5 35.8972 1117.15 36.2332 1116.83C36.5692 1116.5 36.8652 1116.18 37.1212 1115.87C37.3772 1115.55 37.5772 1115.24 37.7212 1114.94C37.8652 1114.62 37.9372 1114.3 37.9372 1113.98C37.9372 1113.27 37.7372 1112.78 37.3372 1112.49C36.9372 1112.2 36.4412 1112.06 35.8492 1112.06C35.4172 1112.06 35.0092 1112.13 34.6252 1112.27C34.2572 1112.4 33.9132 1112.56 33.5932 1112.75C33.2892 1112.93 33.0252 1113.11 32.8012 1113.3C32.5772 1113.48 32.4092 1113.62 32.2972 1113.74L30.5212 1111.24C31.2252 1110.58 32.0412 1110.05 32.9692 1109.63C33.9132 1109.2 34.9212 1108.98 35.9932 1108.98C36.9692 1108.98 37.8092 1109.1 38.5133 1109.32C39.2173 1109.54 39.7933 1109.86 40.2413 1110.28C40.7053 1110.68 41.0412 1111.18 41.2493 1111.77C41.4733 1112.34 41.5853 1113 41.5853 1113.74ZM56.4259 1113.74C56.4259 1114.34 56.3059 1114.93 56.0659 1115.49C55.8259 1116.05 55.5139 1116.59 55.1299 1117.12C54.7459 1117.63 54.3139 1118.13 53.8339 1118.61C53.3539 1119.09 52.8819 1119.54 52.4179 1119.98C52.1779 1120.2 51.9139 1120.46 51.6259 1120.74C51.3539 1121.02 51.0899 1121.3 50.8339 1121.58C50.5779 1121.87 50.3459 1122.14 50.1379 1122.4C49.9459 1122.64 49.8259 1122.84 49.7779 1123H56.9299V1126H45.8419C45.8099 1125.82 45.7939 1125.6 45.7939 1125.33C45.7939 1125.06 45.7939 1124.86 45.7939 1124.75C45.7939 1123.98 45.9139 1123.28 46.1539 1122.64C46.4099 1122 46.7379 1121.41 47.1379 1120.86C47.5379 1120.3 47.9859 1119.78 48.4819 1119.3C48.9939 1118.82 49.4979 1118.34 49.9939 1117.86C50.3779 1117.5 50.7379 1117.15 51.0739 1116.83C51.4099 1116.5 51.7059 1116.18 51.9619 1115.87C52.2179 1115.55 52.4179 1115.24 52.5619 1114.94C52.7059 1114.62 52.7779 1114.3 52.7779 1113.98C52.7779 1113.27 52.5779 1112.78 52.1779 1112.49C51.7779 1112.2 51.2819 1112.06 50.6899 1112.06C50.2579 1112.06 49.8499 1112.13 49.4659 1112.27C49.0979 1112.4 48.7539 1112.56 48.4339 1112.75C48.1299 1112.93 47.8659 1113.11 47.6419 1113.3C47.4179 1113.48 47.2499 1113.62 47.1379 1113.74L45.3619 1111.24C46.0659 1110.58 46.8819 1110.05 47.8099 1109.63C48.7539 1109.2 49.7619 1108.98 50.8339 1108.98C51.8099 1108.98 52.6499 1109.1 53.3539 1109.32C54.0579 1109.54 54.6339 1109.86 55.0819 1110.28C55.5459 1110.68 55.8819 1111.18 56.0899 1111.77C56.3139 1112.34 56.4259 1113 56.4259 1113.74Z" fill="#FF8F29"/>
</svg>
